<svg id="svg" version="1.1" xmlns="http://www.w3.org/2000/svg" xmlns:xlink="http://www.w3.org/1999/xlink" width="400" height="400" viewBox="0, 0, 400,400"><g id="svgg"><path id="path0" d="M199.450 118.050 C 199.313 118.738,199.200 122.154,199.200 125.642 C 199.200 133.152,200.098 132.363,191.400 132.503 C 184.787 132.610,184.677 132.663,185.372 135.431 C 185.610 136.378,185.632 136.381,192.305 136.490 L 199.000 136.600 199.200 143.915 C 199.415 151.782,199.476 151.988,201.600 151.988 C 203.528 151.988,203.575 151.807,203.691 143.982 L 203.800 136.600 210.600 136.400 L 217.400 136.200 217.522 134.300 L 217.644 132.400 211.036 132.400 C 202.955 132.400,203.600 133.143,203.600 123.826 L 203.600 116.800 201.650 116.800 C 199.786 116.800,199.689 116.855,199.450 118.050 M154.267 133.467 C 154.120 133.613,154.000 138.650,154.000 144.660 L 154.000 155.586 143.700 155.693 L 133.400 155.800 133.282 158.700 L 133.165 161.600 143.582 161.600 L 154.000 161.600 154.000 172.757 C 154.000 185.392,153.700 184.404,157.533 184.394 C 160.986 184.385,160.774 185.117,160.893 172.780 L 161.000 161.800 171.294 161.693 L 181.588 161.587 181.819 160.667 C 181.946 160.161,181.994 158.859,181.925 157.773 L 181.800 155.800 171.400 155.600 L 161.000 155.400 160.894 144.300 L 160.787 133.200 157.660 133.200 C 155.940 133.200,154.413 133.320,154.267 133.467 M241.506 144.300 L 241.400 155.400 231.200 155.600 L 221.000 155.800 220.882 158.700 L 220.765 161.600 230.082 161.640 C 235.207 161.662,239.850 161.805,240.400 161.958 L 241.400 162.235 241.600 173.218 L 241.800 184.200 244.791 184.319 C 249.000 184.487,248.800 185.064,248.800 172.747 C 248.800 164.946,248.921 162.369,249.300 162.124 C 249.575 161.946,254.300 161.710,259.800 161.600 L 269.800 161.400 269.920 159.312 C 270.143 155.455,270.638 155.629,259.090 155.507 L 249.000 155.400 248.784 144.400 C 248.665 138.350,248.530 133.355,248.484 133.300 C 248.438 133.245,246.873 133.200,245.006 133.200 L 241.613 133.200 241.506 144.300 M197.200 182.357 C 197.200 192.720,197.115 194.428,196.571 194.971 C 196.031 195.512,194.412 195.600,184.971 195.600 L 174.000 195.600 174.000 199.600 L 174.000 203.600 184.900 203.606 C 191.061 203.610,196.061 203.777,196.400 203.991 C 196.905 204.310,197.032 206.324,197.200 216.685 L 197.400 229.000 200.599 229.119 C 202.358 229.184,204.203 229.135,204.699 229.011 L 205.600 228.785 205.600 216.966 C 205.600 209.584,205.755 204.857,206.014 204.374 C 206.408 203.637,206.964 203.600,217.567 203.600 L 228.707 203.600 228.948 202.700 C 229.264 201.520,229.265 198.426,228.950 196.850 L 228.700 195.600 217.574 195.600 C 209.112 195.600,206.370 195.480,206.124 195.100 C 205.946 194.825,205.710 189.200,205.600 182.600 L 205.400 170.600 201.300 170.486 L 197.200 170.372 197.200 182.357 M265.883 181.450 C 265.727 181.606,265.600 184.853,265.600 188.667 C 265.600 197.757,266.110 197.200,257.781 197.200 L 251.562 197.200 251.681 199.700 L 251.800 202.200 258.259 202.310 C 266.208 202.445,265.554 201.713,265.690 210.630 L 265.800 217.800 268.600 217.800 L 271.400 217.800 271.600 210.200 L 271.800 202.600 278.600 202.400 L 285.400 202.200 285.519 199.700 L 285.638 197.200 279.645 197.200 C 276.349 197.200,273.194 197.026,272.635 196.813 L 271.618 196.427 271.509 188.913 L 271.400 181.400 268.783 181.284 C 267.344 181.220,266.039 181.295,265.883 181.450 M130.800 189.565 C 130.800 198.294,131.472 197.600,123.026 197.600 L 116.800 197.600 116.800 199.600 C 116.800 200.919,116.970 201.609,117.300 201.627 C 117.575 201.641,120.612 201.631,124.048 201.603 C 131.529 201.542,130.800 200.653,130.800 209.833 L 130.800 216.800 132.991 216.800 L 135.182 216.800 135.291 209.300 L 135.400 201.800 141.400 201.703 C 149.346 201.575,149.275 201.595,149.122 199.487 L 149.000 197.800 143.000 197.703 C 134.284 197.562,135.238 198.506,135.109 189.895 L 135.000 182.600 132.900 182.479 L 130.800 182.358 130.800 189.565 M154.500 214.265 C 154.118 214.419,154.000 216.978,154.000 225.153 C 154.000 232.932,153.869 235.971,153.520 236.320 C 153.172 236.668,150.302 236.800,143.120 236.800 L 133.200 236.800 133.200 239.800 L 133.200 242.800 142.938 242.800 C 155.337 242.800,154.000 241.334,154.000 254.931 L 154.000 265.600 157.382 265.600 L 160.763 265.600 160.882 254.861 C 160.974 246.482,161.121 243.976,161.549 243.461 C 162.032 242.879,163.287 242.800,172.067 242.800 L 182.035 242.800 181.918 239.900 L 181.800 237.000 171.761 236.893 L 161.722 236.787 161.261 235.774 C 160.952 235.095,160.800 231.427,160.800 224.624 C 160.800 215.748,160.721 214.455,160.167 214.243 C 159.422 213.957,155.223 213.973,154.500 214.265 M242.300 214.276 C 241.655 214.444,241.600 215.306,241.600 225.180 C 241.600 233.616,241.487 235.996,241.068 236.344 C 240.720 236.633,237.154 236.823,230.768 236.893 L 221.000 237.000 220.882 239.900 L 220.765 242.800 230.506 242.800 C 237.673 242.800,240.425 242.932,240.920 243.300 C 241.518 243.744,241.605 245.017,241.697 254.600 L 241.800 265.400 245.049 265.515 C 249.095 265.659,248.788 266.627,248.795 253.714 C 248.801 241.472,247.446 242.800,259.931 242.800 C 270.557 242.800,270.005 242.950,269.995 240.067 C 269.981 236.565,270.820 236.827,259.255 236.707 L 249.000 236.600 248.800 225.800 C 248.690 219.860,248.454 214.775,248.276 214.500 C 247.962 214.014,243.888 213.861,242.300 214.276 M198.683 246.250 C 198.527 246.406,198.397 249.788,198.394 253.767 C 198.386 262.791,199.109 261.957,191.183 262.090 L 184.600 262.200 184.600 264.600 L 184.600 267.000 191.059 267.110 C 199.019 267.245,198.355 266.484,198.491 275.630 L 198.600 283.000 201.500 283.118 L 204.400 283.235 204.400 275.641 C 204.400 266.573,203.607 267.454,212.000 267.200 L 218.600 267.000 218.600 264.600 L 218.600 262.200 211.700 262.091 C 207.905 262.030,204.765 261.940,204.722 261.891 C 204.679 261.841,204.544 258.290,204.422 254.000 L 204.200 246.200 201.583 246.084 C 200.144 246.020,198.839 246.095,198.683 246.250 " stroke="none" fill="#fbfbfb" fill-rule="evenodd"></path><path id="path1" d="M180.800 0.600 C 180.800 0.933,181.156 1.200,181.600 1.200 C 182.133 1.200,182.400 1.467,182.400 2.000 C 182.400 2.533,182.133 2.800,181.600 2.800 C 181.067 2.800,180.800 3.067,180.800 3.600 C 180.800 4.133,181.067 4.400,181.600 4.400 C 182.133 4.400,182.400 4.667,182.400 5.200 C 182.400 5.733,182.133 6.000,181.600 6.000 C 181.067 6.000,180.800 6.267,180.800 6.800 C 180.800 7.333,181.067 7.600,181.600 7.600 C 182.044 7.600,182.400 7.867,182.400 8.200 C 182.400 8.631,182.880 8.815,184.100 8.854 C 185.035 8.884,185.395 8.987,184.900 9.082 C 184.405 9.178,184.000 9.513,184.000 9.828 C 184.000 10.143,183.640 10.400,183.200 10.400 C 182.756 10.400,182.400 10.133,182.400 9.800 C 182.400 9.467,182.044 9.200,181.600 9.200 C 181.156 9.200,180.800 9.467,180.800 9.800 C 180.800 10.133,181.156 10.400,181.600 10.400 C 182.133 10.400,182.400 10.667,182.400 11.200 C 182.400 11.733,182.133 12.000,181.600 12.000 C 181.067 12.000,180.800 12.267,180.800 12.800 C 180.800 13.333,181.067 13.600,181.600 13.600 C 182.133 13.600,182.400 13.867,182.400 14.400 C 182.400 14.933,182.133 15.200,181.600 15.200 C 181.067 15.200,180.800 15.467,180.800 16.000 C 180.800 16.533,181.067 16.800,181.600 16.800 C 182.133 16.800,182.400 17.067,182.400 17.600 C 182.400 18.133,182.133 18.400,181.600 18.400 C 180.856 18.400,180.800 18.667,180.800 22.177 L 180.800 25.954 182.500 26.107 C 183.842 26.228,183.674 26.275,181.700 26.330 C 179.330 26.396,177.719 27.600,180.000 27.600 C 180.533 27.600,180.800 27.867,180.800 28.400 C 180.800 28.933,180.533 29.200,180.000 29.200 C 179.467 29.200,179.200 29.467,179.200 30.000 C 179.200 30.533,178.933 30.800,178.400 30.800 C 177.867 30.800,177.600 31.067,177.600 31.600 C 177.600 32.133,177.867 32.400,178.400 32.400 C 178.933 32.400,179.200 32.667,179.200 33.200 C 179.200 33.733,178.933 34.000,178.400 34.000 C 177.867 34.000,177.600 34.267,177.600 34.800 C 177.600 35.333,177.867 35.600,178.400 35.600 C 178.933 35.600,179.200 35.867,179.200 36.400 C 179.200 36.933,178.933 37.200,178.400 37.200 C 177.698 37.200,177.600 37.467,177.600 39.377 L 177.600 41.554 179.300 41.707 C 180.774 41.840,180.695 41.870,178.700 41.930 C 175.666 42.022,175.324 43.164,178.300 43.264 C 179.760 43.313,179.899 43.365,178.900 43.489 C 178.111 43.587,177.600 43.877,177.600 44.225 C 177.600 44.541,177.330 44.800,177.000 44.800 C 176.667 44.800,176.400 45.156,176.400 45.600 C 176.400 46.044,176.667 46.400,177.000 46.400 C 177.333 46.400,177.600 46.756,177.600 47.200 C 177.600 47.644,177.333 48.000,177.000 48.000 C 176.507 48.000,176.385 48.804,176.317 52.500 L 176.234 57.000 176.102 53.300 C 175.941 48.798,174.800 47.658,174.800 52.000 C 174.800 54.133,174.711 54.400,174.000 54.400 C 173.467 54.400,173.200 54.667,173.200 55.200 C 173.200 55.733,172.933 56.000,172.400 56.000 C 171.867 56.000,171.600 56.267,171.600 56.800 C 171.600 57.333,171.867 57.600,172.400 57.600 C 172.868 57.600,173.200 57.867,173.200 58.242 C 173.200 58.750,173.535 58.852,174.800 58.731 C 176.198 58.598,176.396 58.681,176.368 59.389 C 176.351 59.835,176.246 59.975,176.135 59.700 C 176.009 59.386,175.126 59.200,173.767 59.200 L 171.600 59.200 171.600 61.400 C 171.600 63.333,171.503 63.600,170.800 63.600 C 170.267 63.600,170.000 63.867,170.000 64.400 C 170.000 64.933,169.733 65.200,169.200 65.200 C 168.667 65.200,168.400 65.467,168.400 66.000 C 168.400 66.533,168.667 66.800,169.200 66.800 C 169.733 66.800,170.000 67.067,170.000 67.600 C 170.000 68.133,169.733 68.400,169.200 68.400 C 168.667 68.400,168.400 68.667,168.400 69.200 C 168.400 69.733,168.133 70.000,167.600 70.000 C 167.067 70.000,166.800 70.267,166.800 70.800 C 166.800 71.333,166.533 71.600,166.000 71.600 C 165.467 71.600,165.200 71.867,165.200 72.400 C 165.200 72.933,165.467 73.200,166.000 73.200 C 166.533 73.200,166.800 73.467,166.800 74.000 C 166.800 74.533,166.533 74.800,166.000 74.800 C 165.556 74.800,165.200 75.067,165.200 75.400 C 165.200 75.733,165.556 76.000,166.000 76.000 C 166.444 76.000,166.800 75.733,166.800 75.400 C 166.800 75.067,167.156 74.800,167.600 74.800 C 168.040 74.800,168.400 75.055,168.400 75.367 C 168.400 75.678,168.625 76.024,168.900 76.135 C 169.175 76.246,168.455 76.351,167.300 76.368 L 165.200 76.400 165.200 77.800 C 165.200 78.933,165.048 79.200,164.400 79.200 C 163.867 79.200,163.600 79.467,163.600 80.000 C 163.600 80.533,163.333 80.800,162.800 80.800 C 162.089 80.800,162.000 81.067,162.000 83.200 C 162.000 85.333,161.911 85.600,161.200 85.600 C 160.667 85.600,160.400 85.333,160.400 84.800 C 160.400 84.356,160.133 84.000,159.800 84.000 C 159.467 84.000,159.200 84.356,159.200 84.800 C 159.200 85.244,159.467 85.600,159.800 85.600 C 160.133 85.600,160.400 85.956,160.400 86.400 C 160.400 86.844,160.133 87.200,159.800 87.200 C 159.023 87.200,158.930 91.424,159.700 91.735 C 160.100 91.896,160.100 91.943,159.700 91.968 C 158.941 92.016,159.103 93.116,159.900 93.324 C 160.526 93.488,160.529 93.512,159.927 93.554 C 159.515 93.582,159.188 94.028,159.087 94.700 L 158.920 95.800 158.860 94.700 C 158.791 93.434,156.000 92.947,156.000 94.200 C 156.000 94.533,155.644 94.800,155.200 94.800 C 154.667 94.800,154.400 95.067,154.400 95.600 C 154.400 96.133,154.133 96.400,153.600 96.400 C 153.067 96.400,152.800 96.667,152.800 97.200 C 152.800 97.733,153.067 98.000,153.600 98.000 C 154.133 98.000,154.400 98.267,154.400 98.800 C 154.400 99.333,154.133 99.600,153.600 99.600 C 153.067 99.600,152.800 99.867,152.800 100.400 C 152.800 100.933,152.533 101.200,152.000 101.200 C 151.467 101.200,151.200 101.467,151.200 102.000 C 151.200 102.533,150.933 102.800,150.400 102.800 C 149.867 102.800,149.600 103.067,149.600 103.600 C 149.600 104.133,149.333 104.400,148.800 104.400 C 148.267 104.400,148.000 104.667,148.000 105.200 C 148.000 105.733,147.733 106.000,147.200 106.000 C 146.667 106.000,146.400 106.267,146.400 106.800 C 146.400 107.333,146.667 107.600,147.200 107.600 C 147.640 107.600,148.000 107.859,148.000 108.175 C 148.000 108.523,148.511 108.813,149.300 108.911 C 150.191 109.021,149.939 109.092,148.500 109.136 C 146.928 109.184,146.400 109.351,146.400 109.800 C 146.400 110.133,146.044 110.400,145.600 110.400 C 145.156 110.400,144.800 110.133,144.800 109.800 C 144.800 109.470,144.530 109.200,144.200 109.200 C 143.870 109.200,143.600 109.470,143.600 109.800 C 143.600 110.130,143.870 110.400,144.200 110.400 C 144.533 110.400,144.800 110.756,144.800 111.200 C 144.800 111.644,144.533 112.000,144.200 112.000 C 143.729 112.000,143.584 112.622,143.526 114.900 C 143.462 117.409,143.432 117.517,143.305 115.700 C 143.064 112.248,142.019 112.854,141.926 116.500 C 141.862 119.009,141.832 119.117,141.705 117.300 C 141.561 115.242,140.400 114.085,140.400 116.000 C 140.400 116.533,140.133 116.800,139.600 116.800 C 139.067 116.800,138.800 117.067,138.800 117.600 C 138.800 118.133,138.533 118.400,138.000 118.400 C 137.467 118.400,137.200 118.667,137.200 119.200 C 137.200 119.733,136.933 120.000,136.400 120.000 C 135.867 120.000,135.600 120.267,135.600 120.800 C 135.600 121.333,135.333 121.600,134.800 121.600 C 134.267 121.600,134.000 121.867,134.000 122.400 C 134.000 122.933,133.733 123.200,133.200 123.200 C 132.667 123.200,132.400 123.467,132.400 124.000 C 132.400 124.533,132.133 124.800,131.600 124.800 C 131.156 124.800,130.800 125.067,130.800 125.400 C 130.800 125.733,131.156 126.000,131.600 126.000 C 132.044 126.000,132.400 125.733,132.400 125.400 C 132.400 125.067,132.756 124.800,133.200 124.800 C 133.640 124.800,134.000 125.055,134.000 125.367 C 134.000 125.678,134.225 126.024,134.500 126.135 C 134.775 126.246,134.055 126.351,132.900 126.368 L 130.800 126.400 130.800 127.800 C 130.800 128.933,130.648 129.200,130.000 129.200 C 129.467 129.200,129.200 128.933,129.200 128.400 C 129.200 127.867,128.933 127.600,128.400 127.600 C 127.689 127.600,127.600 127.867,127.600 130.000 C 127.600 131.820,127.461 132.400,127.025 132.400 C 126.677 132.400,126.387 132.911,126.289 133.700 C 126.179 134.591,126.108 134.339,126.064 132.900 C 126.001 130.842,124.800 129.606,124.800 131.600 C 124.800 132.133,124.533 132.400,124.000 132.400 C 123.467 132.400,123.200 132.667,123.200 133.200 C 123.200 133.733,122.933 134.000,122.400 134.000 C 121.867 134.000,121.600 134.267,121.600 134.800 C 121.600 135.333,121.333 135.600,120.800 135.600 C 120.267 135.600,120.000 135.867,120.000 136.400 C 120.000 136.933,119.733 137.200,119.200 137.200 C 118.667 137.200,118.400 137.467,118.400 138.000 C 118.400 138.533,118.133 138.800,117.600 138.800 C 117.067 138.800,116.800 139.067,116.800 139.600 C 116.800 140.133,116.533 140.400,116.000 140.400 C 115.556 140.400,115.200 140.667,115.200 141.000 C 115.200 141.333,115.556 141.600,116.000 141.600 C 116.444 141.600,116.800 141.333,116.800 141.000 C 116.800 140.667,117.156 140.400,117.600 140.400 C 118.040 140.400,118.400 140.655,118.400 140.967 C 118.400 141.278,118.625 141.624,118.900 141.735 C 119.175 141.846,118.095 141.951,116.500 141.968 C 112.853 142.008,112.223 143.062,115.700 143.305 C 117.517 143.432,117.409 143.462,114.900 143.526 C 112.622 143.584,112.000 143.729,112.000 144.200 C 112.000 144.533,111.644 144.800,111.200 144.800 C 110.756 144.800,110.400 144.533,110.400 144.200 C 110.400 143.870,110.130 143.600,109.800 143.600 C 109.470 143.600,109.200 143.870,109.200 144.200 C 109.200 144.530,109.470 144.800,109.800 144.800 C 110.133 144.800,110.400 145.156,110.400 145.600 C 110.400 146.044,110.133 146.400,109.800 146.400 C 109.351 146.400,109.184 146.928,109.136 148.500 C 109.092 149.939,109.021 150.191,108.911 149.300 C 108.813 148.511,108.523 148.000,108.175 148.000 C 107.859 148.000,107.600 147.640,107.600 147.200 C 107.600 146.667,107.333 146.400,106.800 146.400 C 106.267 146.400,106.000 146.667,106.000 147.200 C 106.000 147.733,105.733 148.000,105.200 148.000 C 104.667 148.000,104.400 148.267,104.400 148.800 C 104.400 149.333,104.133 149.600,103.600 149.600 C 103.067 149.600,102.800 149.867,102.800 150.400 C 102.800 150.933,102.533 151.200,102.000 151.200 C 101.467 151.200,101.200 151.467,101.200 152.000 C 101.200 152.533,100.933 152.800,100.400 152.800 C 99.867 152.800,99.600 153.067,99.600 153.600 C 99.600 154.133,99.333 154.400,98.800 154.400 C 98.267 154.400,98.000 154.133,98.000 153.600 C 98.000 153.067,97.733 152.800,97.200 152.800 C 96.667 152.800,96.400 153.067,96.400 153.600 C 96.400 154.133,96.133 154.400,95.600 154.400 C 95.067 154.400,94.800 154.667,94.800 155.200 C 94.800 155.644,94.533 156.000,94.200 156.000 C 92.969 156.000,93.436 158.722,94.700 158.913 L 95.800 159.080 94.729 159.140 C 94.080 159.176,93.587 159.476,93.476 159.900 C 93.302 160.567,93.291 160.567,93.246 159.900 C 93.193 159.098,92.168 158.950,91.865 159.700 C 91.704 160.100,91.657 160.100,91.632 159.700 C 91.586 158.983,90.400 159.080,90.400 159.800 C 90.400 160.133,90.044 160.400,89.600 160.400 C 89.156 160.400,88.800 160.133,88.800 159.800 C 88.800 159.467,88.444 159.200,88.000 159.200 C 87.556 159.200,87.200 159.467,87.200 159.800 C 87.200 160.133,86.844 160.400,86.400 160.400 C 85.956 160.400,85.600 160.133,85.600 159.800 C 85.600 159.467,85.244 159.200,84.800 159.200 C 84.356 159.200,84.000 159.467,84.000 159.800 C 84.000 160.133,84.356 160.400,84.800 160.400 C 85.333 160.400,85.600 160.667,85.600 161.200 C 85.600 161.733,85.333 162.000,84.800 162.000 C 84.267 162.000,84.000 162.267,84.000 162.800 C 84.000 163.333,83.733 163.600,83.200 163.600 C 82.667 163.600,82.400 163.333,82.400 162.800 C 82.400 162.267,82.133 162.000,81.600 162.000 C 81.067 162.000,80.800 162.267,80.800 162.800 C 80.800 163.333,80.533 163.600,80.000 163.600 C 79.467 163.600,79.200 163.867,79.200 164.400 C 79.200 164.933,78.933 165.200,78.400 165.200 C 77.867 165.200,77.600 165.467,77.600 166.000 C 77.600 166.440,77.341 166.800,77.025 166.800 C 76.677 166.800,76.387 167.311,76.289 168.100 C 76.179 168.991,76.108 168.739,76.064 167.300 C 76.001 165.242,74.800 164.006,74.800 166.000 C 74.800 166.533,74.533 166.800,74.000 166.800 C 73.467 166.800,73.200 166.533,73.200 166.000 C 73.200 165.467,72.933 165.200,72.400 165.200 C 71.867 165.200,71.600 165.467,71.600 166.000 C 71.600 166.533,71.333 166.800,70.800 166.800 C 70.267 166.800,70.000 167.067,70.000 167.600 C 70.000 168.133,69.733 168.400,69.200 168.400 C 68.667 168.400,68.400 168.667,68.400 169.200 C 68.400 169.733,68.133 170.000,67.600 170.000 C 67.067 170.000,66.800 169.733,66.800 169.200 C 66.800 168.667,66.533 168.400,66.000 168.400 C 65.467 168.400,65.200 168.667,65.200 169.200 C 65.200 169.733,64.933 170.000,64.400 170.000 C 63.867 170.000,63.600 170.267,63.600 170.800 C 63.600 171.333,63.333 171.600,62.800 171.600 C 62.267 171.600,62.000 171.867,62.000 172.400 C 62.000 172.933,61.733 173.200,61.200 173.200 C 60.667 173.200,60.400 172.933,60.400 172.400 C 60.400 171.956,60.133 171.600,59.800 171.600 C 59.023 171.600,58.930 175.824,59.700 176.135 C 59.975 176.246,59.835 176.351,59.389 176.368 C 58.681 176.396,58.598 176.198,58.731 174.800 C 58.852 173.535,58.750 173.200,58.242 173.200 C 57.867 173.200,57.600 172.868,57.600 172.400 C 57.600 171.867,57.333 171.600,56.800 171.600 C 56.267 171.600,56.000 171.867,56.000 172.400 C 56.000 172.933,55.733 173.200,55.200 173.200 C 54.667 173.200,54.400 173.467,54.400 174.000 C 54.400 174.533,54.133 174.800,53.600 174.800 C 51.685 174.800,52.842 175.961,54.900 176.105 C 56.055 176.186,54.255 176.285,50.900 176.326 C 45.777 176.388,44.800 176.496,44.800 177.000 C 44.800 177.330,44.530 177.600,44.200 177.600 C 43.796 177.600,43.590 178.025,43.568 178.900 C 43.551 179.615,43.446 179.975,43.335 179.700 C 43.003 178.877,42.068 179.134,41.882 180.100 C 41.787 180.595,41.684 180.235,41.654 179.300 C 41.599 177.553,40.400 176.694,40.400 178.400 C 40.400 178.933,40.133 179.200,39.600 179.200 C 39.067 179.200,38.800 178.933,38.800 178.400 C 38.800 177.867,38.533 177.600,38.000 177.600 C 37.467 177.600,37.200 177.867,37.200 178.400 C 37.200 178.933,36.933 179.200,36.400 179.200 C 35.867 179.200,35.600 178.933,35.600 178.400 C 35.600 177.867,35.333 177.600,34.800 177.600 C 34.267 177.600,34.000 177.867,34.000 178.400 C 34.000 178.933,33.733 179.200,33.200 179.200 C 32.667 179.200,32.400 178.933,32.400 178.400 C 32.400 177.867,32.133 177.600,31.600 177.600 C 31.067 177.600,30.800 177.867,30.800 178.400 C 30.800 178.933,30.533 179.200,30.000 179.200 C 29.467 179.200,29.200 179.467,29.200 180.000 C 29.200 180.533,28.933 180.800,28.400 180.800 C 27.867 180.800,27.600 180.533,27.600 180.000 C 27.600 179.556,27.333 179.200,27.000 179.200 C 26.667 179.200,26.400 179.556,26.400 180.000 C 26.400 180.444,26.667 180.800,27.000 180.800 C 27.333 180.800,27.600 181.156,27.600 181.600 C 27.600 182.040,27.343 182.400,27.028 182.400 C 26.713 182.400,26.378 182.805,26.282 183.300 C 26.187 183.795,26.084 183.435,26.054 182.500 C 25.999 180.753,24.800 179.894,24.800 181.600 C 24.800 182.133,24.533 182.400,24.000 182.400 C 23.467 182.400,23.200 182.133,23.200 181.600 C 23.200 181.067,22.933 180.800,22.400 180.800 C 21.867 180.800,21.600 181.067,21.600 181.600 C 21.600 182.133,21.333 182.400,20.800 182.400 C 20.267 182.400,20.000 182.133,20.000 181.600 C 20.000 181.067,19.733 180.800,19.200 180.800 C 18.667 180.800,18.400 181.067,18.400 181.600 C 18.400 182.133,18.133 182.400,17.600 182.400 C 17.067 182.400,16.800 182.133,16.800 181.600 C 16.800 181.067,16.533 180.800,16.000 180.800 C 15.467 180.800,15.200 181.067,15.200 181.600 C 15.200 182.133,14.933 182.400,14.400 182.400 C 13.867 182.400,13.600 182.133,13.600 181.600 C 13.600 181.067,13.333 180.800,12.800 180.800 C 12.267 180.800,12.000 181.067,12.000 181.600 C 12.000 182.133,11.733 182.400,11.200 182.400 C 10.667 182.400,10.400 182.133,10.400 181.600 C 10.400 179.319,9.196 180.930,9.130 183.300 C 9.075 185.274,9.028 185.442,8.907 184.100 C 8.804 182.956,8.565 182.400,8.177 182.400 C 7.860 182.400,7.600 182.040,7.600 181.600 C 7.600 181.067,7.333 180.800,6.800 180.800 C 6.267 180.800,6.000 181.067,6.000 181.600 C 6.000 182.133,5.733 182.400,5.200 182.400 C 4.667 182.400,4.400 182.133,4.400 181.600 C 4.400 181.067,4.133 180.800,3.600 180.800 C 3.067 180.800,2.800 181.067,2.800 181.600 C 2.800 182.133,2.533 182.400,2.000 182.400 C 1.467 182.400,1.200 182.133,1.200 181.600 C 1.200 181.156,0.933 180.800,0.600 180.800 C 0.068 180.800,0.000 193.244,0.000 290.400 L 0.000 400.000 200.000 400.000 L 400.000 400.000 400.000 200.000 L 400.000 0.000 292.000 0.000 C 196.267 0.000,184.000 0.068,184.000 0.600 C 184.000 0.933,183.644 1.200,183.200 1.200 C 182.756 1.200,182.400 0.933,182.400 0.600 C 182.400 0.267,182.044 0.000,181.600 0.000 C 181.156 0.000,180.800 0.267,180.800 0.600 M184.000 3.600 C 184.000 4.133,183.733 4.400,183.200 4.400 C 182.667 4.400,182.400 4.133,182.400 3.600 C 182.400 3.067,182.667 2.800,183.200 2.800 C 183.733 2.800,184.000 3.067,184.000 3.600 M184.000 6.800 C 184.000 7.333,183.733 7.600,183.200 7.600 C 182.667 7.600,182.400 7.333,182.400 6.800 C 182.400 6.267,182.667 6.000,183.200 6.000 C 183.733 6.000,184.000 6.267,184.000 6.800 M184.000 12.800 C 184.000 13.333,183.733 13.600,183.200 13.600 C 182.667 13.600,182.400 13.333,182.400 12.800 C 182.400 12.267,182.667 12.000,183.200 12.000 C 183.733 12.000,184.000 12.267,184.000 12.800 M180.800 31.600 C 180.800 32.133,180.533 32.400,180.000 32.400 C 179.467 32.400,179.200 32.133,179.200 31.600 C 179.200 31.067,179.467 30.800,180.000 30.800 C 180.533 30.800,180.800 31.067,180.800 31.600 M180.800 34.800 C 180.800 35.333,180.533 35.600,180.000 35.600 C 179.467 35.600,179.200 35.333,179.200 34.800 C 179.200 34.267,179.467 34.000,180.000 34.000 C 180.533 34.000,180.800 34.267,180.800 34.800 M174.800 44.200 C 174.800 44.530,175.070 44.800,175.400 44.800 C 175.730 44.800,176.000 44.530,176.000 44.200 C 176.000 43.870,175.730 43.600,175.400 43.600 C 175.070 43.600,174.800 43.870,174.800 44.200 M174.800 47.200 C 174.800 47.644,175.067 48.000,175.400 48.000 C 175.733 48.000,176.000 47.644,176.000 47.200 C 176.000 46.756,175.733 46.400,175.400 46.400 C 175.067 46.400,174.800 46.756,174.800 47.200 M174.800 56.800 C 174.800 57.333,174.533 57.600,174.000 57.600 C 173.467 57.600,173.200 57.333,173.200 56.800 C 173.200 56.267,173.467 56.000,174.000 56.000 C 174.533 56.000,174.800 56.267,174.800 56.800 M171.600 66.000 C 171.600 66.533,171.333 66.800,170.800 66.800 C 170.267 66.800,170.000 66.533,170.000 66.000 C 170.000 65.467,170.267 65.200,170.800 65.200 C 171.333 65.200,171.600 65.467,171.600 66.000 M168.400 72.400 C 168.400 72.933,168.133 73.200,167.600 73.200 C 167.067 73.200,166.800 72.933,166.800 72.400 C 166.800 71.867,167.067 71.600,167.600 71.600 C 168.133 71.600,168.400 71.867,168.400 72.400 M165.200 81.600 C 165.200 82.133,164.933 82.400,164.400 82.400 C 163.867 82.400,163.600 82.133,163.600 81.600 C 163.600 81.067,163.867 80.800,164.400 80.800 C 164.933 80.800,165.200 81.067,165.200 81.600 M162.000 88.000 C 162.000 88.533,161.733 88.800,161.200 88.800 C 160.667 88.800,160.400 88.533,160.400 88.000 C 160.400 87.467,160.667 87.200,161.200 87.200 C 161.733 87.200,162.000 87.467,162.000 88.000 M156.000 91.000 C 156.000 91.333,156.356 91.600,156.800 91.600 C 157.244 91.600,157.600 91.333,157.600 91.000 C 157.600 90.667,157.244 90.400,156.800 90.400 C 156.356 90.400,156.000 90.667,156.000 91.000 M157.600 92.600 C 157.600 92.930,157.870 93.200,158.200 93.200 C 158.530 93.200,158.800 92.930,158.800 92.600 C 158.800 92.270,158.530 92.000,158.200 92.000 C 157.870 92.000,157.600 92.270,157.600 92.600 M156.000 97.200 C 156.000 97.733,155.733 98.000,155.200 98.000 C 154.667 98.000,154.400 97.733,154.400 97.200 C 154.400 96.667,154.667 96.400,155.200 96.400 C 155.733 96.400,156.000 96.667,156.000 97.200 M149.600 106.800 C 149.600 107.333,149.333 107.600,148.800 107.600 C 148.267 107.600,148.000 107.333,148.000 106.800 C 148.000 106.267,148.267 106.000,148.800 106.000 C 149.333 106.000,149.600 106.267,149.600 106.800 M204.069 115.862 C 204.725 116.456,204.800 117.255,204.800 123.662 L 204.800 130.800 211.111 130.800 C 218.700 130.800,219.200 130.994,219.200 133.946 C 219.200 137.143,219.131 137.173,211.600 137.294 L 205.000 137.400 204.800 144.600 C 204.564 153.081,204.679 152.800,201.456 152.800 C 197.924 152.800,198.000 152.981,198.000 144.529 L 198.000 137.219 191.100 137.109 L 184.200 137.000 184.079 134.410 C 183.910 130.812,183.934 130.800,191.676 130.800 L 198.000 130.800 198.000 123.731 C 198.000 115.420,198.086 115.200,201.330 115.200 C 202.636 115.200,203.592 115.431,204.069 115.862 M140.400 119.200 C 140.400 119.733,140.133 120.000,139.600 120.000 C 139.067 120.000,138.800 119.733,138.800 119.200 C 138.800 118.667,139.067 118.400,139.600 118.400 C 140.133 118.400,140.400 118.667,140.400 119.200 M137.200 122.400 C 137.200 122.933,136.933 123.200,136.400 123.200 C 135.867 123.200,135.600 122.933,135.600 122.400 C 135.600 121.867,135.867 121.600,136.400 121.600 C 136.933 121.600,137.200 121.867,137.200 122.400 M161.520 132.080 C 161.870 132.430,162.000 135.520,162.000 143.480 L 162.000 154.400 171.900 154.413 C 183.786 154.428,183.200 154.208,183.200 158.664 C 183.200 163.062,183.901 162.800,172.120 162.800 L 162.000 162.800 161.987 173.500 C 161.972 186.332,162.238 185.600,157.587 185.600 C 152.501 185.600,152.800 186.353,152.800 173.538 L 152.800 162.800 142.744 162.800 C 130.943 162.800,131.632 163.079,131.613 158.300 C 131.602 155.805,131.717 155.200,132.200 155.200 C 132.530 155.200,132.800 155.020,132.800 154.800 C 132.800 154.544,136.400 154.400,142.800 154.400 L 152.800 154.400 152.800 143.731 C 152.800 130.859,152.508 131.600,157.582 131.600 C 159.738 131.600,161.221 131.781,161.520 132.080 M248.820 132.210 L 250.000 132.821 250.000 143.610 L 250.000 154.400 259.339 154.400 C 271.254 154.400,271.200 154.381,271.200 158.597 C 271.200 163.198,272.225 162.800,260.357 162.800 L 250.000 162.800 250.000 173.311 C 250.000 186.234,250.242 185.600,245.309 185.600 C 240.081 185.600,240.400 186.383,240.400 173.538 L 240.400 162.800 230.344 162.800 C 218.606 162.800,219.233 163.040,219.213 158.546 C 219.194 154.314,218.954 154.400,230.786 154.400 L 240.400 154.400 240.400 143.623 C 240.400 132.939,240.408 132.840,241.289 132.223 C 242.478 131.390,247.218 131.382,248.820 132.210 M124.800 134.800 C 124.800 135.333,124.533 135.600,124.000 135.600 C 123.467 135.600,123.200 135.333,123.200 134.800 C 123.200 134.267,123.467 134.000,124.000 134.000 C 124.533 134.000,124.800 134.267,124.800 134.800 M121.600 138.000 C 121.600 138.533,121.333 138.800,120.800 138.800 C 120.267 138.800,120.000 138.533,120.000 138.000 C 120.000 137.467,120.267 137.200,120.800 137.200 C 121.333 137.200,121.600 137.467,121.600 138.000 M106.000 150.400 C 106.000 150.933,105.733 151.200,105.200 151.200 C 104.667 151.200,104.400 150.933,104.400 150.400 C 104.400 149.867,104.667 149.600,105.200 149.600 C 105.733 149.600,106.000 149.867,106.000 150.400 M90.400 156.800 C 90.400 157.244,90.667 157.600,91.000 157.600 C 91.333 157.600,91.600 157.244,91.600 156.800 C 91.600 156.356,91.333 156.000,91.000 156.000 C 90.667 156.000,90.400 156.356,90.400 156.800 M96.400 156.800 C 96.400 157.333,96.133 157.600,95.600 157.600 C 95.067 157.600,94.800 157.333,94.800 156.800 C 94.800 156.267,95.067 156.000,95.600 156.000 C 96.133 156.000,96.400 156.267,96.400 156.800 M92.000 158.200 C 92.000 158.530,92.270 158.800,92.600 158.800 C 92.930 158.800,93.200 158.530,93.200 158.200 C 93.200 157.870,92.930 157.600,92.600 157.600 C 92.270 157.600,92.000 157.870,92.000 158.200 M73.200 167.600 C 73.200 168.133,72.933 168.400,72.400 168.400 C 71.867 168.400,71.600 168.667,71.600 169.200 C 71.600 169.733,71.333 170.000,70.800 170.000 C 70.267 170.000,70.000 169.733,70.000 169.200 C 70.000 168.667,70.267 168.400,70.800 168.400 C 71.333 168.400,71.600 168.133,71.600 167.600 C 71.600 167.067,71.867 166.800,72.400 166.800 C 72.933 166.800,73.200 167.067,73.200 167.600 M206.548 170.100 C 206.681 170.595,206.792 176.262,206.795 182.694 L 206.800 194.388 218.300 194.494 L 229.800 194.600 229.912 199.700 L 230.024 204.800 221.312 204.838 C 213.970 204.871,210.529 204.951,207.300 205.167 C 206.913 205.192,206.800 207.714,206.800 216.350 C 206.800 222.482,206.688 228.063,206.550 228.750 L 206.300 230.000 201.150 230.000 L 196.000 230.000 196.000 217.606 L 196.000 205.212 184.700 205.106 L 173.400 205.000 173.288 199.706 L 173.177 194.412 184.488 194.306 L 195.800 194.200 195.901 182.200 C 195.957 175.600,196.086 169.975,196.189 169.700 C 196.578 168.656,206.261 169.030,206.548 170.100 M43.600 175.400 C 43.600 175.730,43.870 176.000,44.200 176.000 C 44.530 176.000,44.800 175.730,44.800 175.400 C 44.800 175.070,44.530 174.800,44.200 174.800 C 43.870 174.800,43.600 175.070,43.600 175.400 M46.400 175.400 C 46.400 175.733,46.756 176.000,47.200 176.000 C 47.644 176.000,48.000 175.733,48.000 175.400 C 48.000 175.067,47.644 174.800,47.200 174.800 C 46.756 174.800,46.400 175.067,46.400 175.400 M49.600 175.400 C 49.600 175.733,49.956 176.000,50.400 176.000 C 50.844 176.000,51.200 175.733,51.200 175.400 C 51.200 175.067,50.844 174.800,50.400 174.800 C 49.956 174.800,49.600 175.067,49.600 175.400 M42.000 177.000 C 42.000 177.330,42.270 177.600,42.600 177.600 C 42.930 177.600,43.200 177.330,43.200 177.000 C 43.200 176.670,42.930 176.400,42.600 176.400 C 42.270 176.400,42.000 176.670,42.000 177.000 M272.000 180.391 C 272.486 180.697,272.638 182.194,272.800 188.285 L 273.000 195.800 279.600 195.906 C 287.260 196.029,287.200 195.998,287.200 199.745 C 287.200 203.557,287.112 203.600,279.338 203.600 L 272.800 203.600 272.800 210.626 C 272.800 219.449,272.920 219.200,268.666 219.200 C 264.204 219.200,264.400 219.580,264.400 210.920 L 264.400 203.600 257.880 203.600 C 250.118 203.600,250.400 203.761,250.400 199.329 L 250.400 196.019 257.300 195.909 L 264.200 195.800 264.305 188.400 C 264.396 182.016,264.502 180.931,265.082 180.500 C 265.871 179.912,271.110 179.830,272.000 180.391 M135.626 181.214 C 136.347 181.600,136.400 182.119,136.400 188.814 L 136.400 196.000 142.374 196.000 C 150.266 196.000,150.400 196.057,150.400 199.376 C 150.400 202.775,150.344 202.800,142.626 202.800 L 136.400 202.800 136.400 209.954 L 136.400 217.108 135.414 217.754 C 134.191 218.556,132.314 218.583,130.840 217.821 C 129.527 217.142,129.208 215.090,129.203 207.300 L 129.200 202.800 122.680 202.800 C 115.195 202.800,115.200 202.802,115.200 199.651 C 115.200 196.087,115.382 196.000,122.862 196.000 L 129.200 196.000 129.200 189.289 C 129.200 181.107,129.325 180.800,132.649 180.800 C 133.861 180.800,135.201 180.986,135.626 181.214 M161.367 213.043 C 161.923 213.256,162.000 214.638,162.000 224.443 L 162.000 235.600 172.186 235.600 C 184.010 235.600,183.200 235.269,183.200 240.094 C 183.200 244.226,183.840 244.000,172.120 244.000 L 162.000 244.000 162.000 255.192 L 162.000 266.385 161.100 266.610 C 160.605 266.734,158.580 266.782,156.600 266.718 L 153.000 266.600 152.894 255.300 L 152.788 244.000 142.738 244.000 C 131.075 244.000,131.633 244.201,131.613 239.989 C 131.590 235.418,131.127 235.600,142.823 235.600 L 152.800 235.600 152.800 224.433 C 152.800 215.874,152.917 213.220,153.300 213.065 C 154.022 212.773,160.618 212.755,161.367 213.043 M249.200 213.191 C 249.705 213.510,249.819 215.318,249.918 224.585 L 250.036 235.600 260.154 235.600 L 270.272 235.600 270.736 236.619 C 271.312 237.883,271.344 242.183,270.786 243.226 C 270.393 243.960,269.848 244.000,260.246 244.000 L 250.119 244.000 249.830 255.086 C 249.671 261.183,249.454 266.313,249.347 266.486 C 248.917 267.182,241.520 266.841,240.957 266.100 C 240.546 265.559,240.423 262.963,240.413 254.700 L 240.400 244.000 230.344 244.000 C 221.236 244.000,220.238 243.934,219.757 243.300 C 219.025 242.336,219.059 238.234,219.810 236.780 L 220.421 235.600 230.410 235.600 L 240.400 235.600 240.400 224.931 C 240.400 212.062,240.111 212.797,245.162 212.806 C 247.053 212.809,248.870 212.983,249.200 213.191 M205.122 245.388 C 205.275 245.540,205.490 249.115,205.600 253.332 L 205.800 261.000 212.400 261.200 C 220.209 261.437,220.000 261.346,220.000 264.492 C 220.000 268.365,219.929 268.400,212.138 268.400 L 205.600 268.400 205.600 275.920 C 205.600 284.746,205.761 284.402,201.620 284.394 C 197.177 284.385,197.420 284.853,197.276 276.015 L 197.152 268.400 190.656 268.400 C 183.004 268.400,183.200 268.502,183.200 264.528 C 183.200 261.007,182.690 261.231,191.000 261.097 L 197.000 261.000 197.200 253.519 C 197.401 245.992,197.514 245.463,199.000 245.062 C 200.045 244.780,204.764 245.031,205.122 245.388 " stroke="none" fill="#08a4e4" fill-rule="evenodd"></path><path id="path2" d="M0.000 90.400 C 0.000 170.489,0.068 180.800,0.600 180.800 C 0.933 180.800,1.200 181.156,1.200 181.600 C 1.200 182.133,1.467 182.400,2.000 182.400 C 2.533 182.400,2.800 182.133,2.800 181.600 C 2.800 181.067,3.067 180.800,3.600 180.800 C 4.133 180.800,4.400 181.067,4.400 181.600 C 4.400 182.133,4.667 182.400,5.200 182.400 C 5.733 182.400,6.000 182.133,6.000 181.600 C 6.000 181.067,6.267 180.800,6.800 180.800 C 7.333 180.800,7.600 181.067,7.600 181.600 C 7.600 182.040,7.860 182.400,8.177 182.400 C 8.565 182.400,8.804 182.956,8.907 184.100 C 9.028 185.442,9.075 185.274,9.130 183.300 C 9.196 180.930,10.400 179.319,10.400 181.600 C 10.400 182.133,10.667 182.400,11.200 182.400 C 11.733 182.400,12.000 182.133,12.000 181.600 C 12.000 181.067,12.267 180.800,12.800 180.800 C 13.333 180.800,13.600 181.067,13.600 181.600 C 13.600 182.133,13.867 182.400,14.400 182.400 C 14.933 182.400,15.200 182.133,15.200 181.600 C 15.200 181.067,15.467 180.800,16.000 180.800 C 16.533 180.800,16.800 181.067,16.800 181.600 C 16.800 182.133,17.067 182.400,17.600 182.400 C 18.133 182.400,18.400 182.133,18.400 181.600 C 18.400 181.067,18.667 180.800,19.200 180.800 C 19.733 180.800,20.000 181.067,20.000 181.600 C 20.000 182.133,20.267 182.400,20.800 182.400 C 21.333 182.400,21.600 182.133,21.600 181.600 C 21.600 181.067,21.867 180.800,22.400 180.800 C 22.933 180.800,23.200 181.067,23.200 181.600 C 23.200 182.133,23.467 182.400,24.000 182.400 C 24.533 182.400,24.800 182.133,24.800 181.600 C 24.800 179.894,25.999 180.753,26.054 182.500 C 26.084 183.435,26.187 183.795,26.282 183.300 C 26.378 182.805,26.713 182.400,27.028 182.400 C 27.343 182.400,27.600 182.040,27.600 181.600 C 27.600 181.156,27.333 180.800,27.000 180.800 C 26.667 180.800,26.400 180.444,26.400 180.000 C 26.400 179.556,26.667 179.200,27.000 179.200 C 27.333 179.200,27.600 179.556,27.600 180.000 C 27.600 180.533,27.867 180.800,28.400 180.800 C 28.933 180.800,29.200 180.533,29.200 180.000 C 29.200 179.467,29.467 179.200,30.000 179.200 C 30.533 179.200,30.800 178.933,30.800 178.400 C 30.800 177.867,31.067 177.600,31.600 177.600 C 32.133 177.600,32.400 177.867,32.400 178.400 C 32.400 178.933,32.667 179.200,33.200 179.200 C 33.733 179.200,34.000 178.933,34.000 178.400 C 34.000 177.867,34.267 177.600,34.800 177.600 C 35.333 177.600,35.600 177.867,35.600 178.400 C 35.600 178.933,35.867 179.200,36.400 179.200 C 36.933 179.200,37.200 178.933,37.200 178.400 C 37.200 177.867,37.467 177.600,38.000 177.600 C 38.533 177.600,38.800 177.867,38.800 178.400 C 38.800 178.933,39.067 179.200,39.600 179.200 C 40.133 179.200,40.400 178.933,40.400 178.400 C 40.400 176.694,41.599 177.553,41.654 179.300 C 41.684 180.235,41.787 180.595,41.882 180.100 C 42.068 179.134,43.003 178.877,43.335 179.700 C 43.446 179.975,43.551 179.615,43.568 178.900 C 43.590 178.025,43.796 177.600,44.200 177.600 C 44.530 177.600,44.800 177.330,44.800 177.000 C 44.800 176.496,45.777 176.388,50.900 176.326 C 54.255 176.285,56.055 176.186,54.900 176.105 C 52.842 175.961,51.685 174.800,53.600 174.800 C 54.133 174.800,54.400 174.533,54.400 174.000 C 54.400 173.467,54.667 173.200,55.200 173.200 C 55.733 173.200,56.000 172.933,56.000 172.400 C 56.000 171.867,56.267 171.600,56.800 171.600 C 57.333 171.600,57.600 171.867,57.600 172.400 C 57.600 172.868,57.867 173.200,58.242 173.200 C 58.750 173.200,58.852 173.535,58.731 174.800 C 58.598 176.198,58.681 176.396,59.389 176.368 C 59.835 176.351,59.975 176.246,59.700 176.135 C 58.930 175.824,59.023 171.600,59.800 171.600 C 60.133 171.600,60.400 171.956,60.400 172.400 C 60.400 172.933,60.667 173.200,61.200 173.200 C 61.733 173.200,62.000 172.933,62.000 172.400 C 62.000 171.867,62.267 171.600,62.800 171.600 C 63.333 171.600,63.600 171.333,63.600 170.800 C 63.600 170.267,63.867 170.000,64.400 170.000 C 64.933 170.000,65.200 169.733,65.200 169.200 C 65.200 168.667,65.467 168.400,66.000 168.400 C 66.533 168.400,66.800 168.667,66.800 169.200 C 66.800 169.733,67.067 170.000,67.600 170.000 C 68.133 170.000,68.400 169.733,68.400 169.200 C 68.400 168.667,68.667 168.400,69.200 168.400 C 69.733 168.400,70.000 168.667,70.000 169.200 C 70.000 169.733,70.267 170.000,70.800 170.000 C 71.333 170.000,71.600 169.733,71.600 169.200 C 71.600 168.667,71.867 168.400,72.400 168.400 C 72.933 168.400,73.200 168.133,73.200 167.600 C 73.200 167.067,73.467 166.800,74.000 166.800 C 74.533 166.800,74.800 166.533,74.800 166.000 C 74.800 164.006,76.001 165.242,76.064 167.300 C 76.108 168.739,76.179 168.991,76.289 168.100 C 76.387 167.311,76.677 166.800,77.025 166.800 C 77.341 166.800,77.600 166.440,77.600 166.000 C 77.600 165.467,77.867 165.200,78.400 165.200 C 78.933 165.200,79.200 164.933,79.200 164.400 C 79.200 163.867,79.467 163.600,80.000 163.600 C 80.533 163.600,80.800 163.333,80.800 162.800 C 80.800 162.267,81.067 162.000,81.600 162.000 C 82.133 162.000,82.400 162.267,82.400 162.800 C 82.400 163.333,82.667 163.600,83.200 163.600 C 83.733 163.600,84.000 163.333,84.000 162.800 C 84.000 162.267,84.267 162.000,84.800 162.000 C 85.333 162.000,85.600 161.733,85.600 161.200 C 85.600 160.667,85.333 160.400,84.800 160.400 C 84.356 160.400,84.000 160.133,84.000 159.800 C 84.000 159.467,84.356 159.200,84.800 159.200 C 85.244 159.200,85.600 159.467,85.600 159.800 C 85.600 160.133,85.956 160.400,86.400 160.400 C 86.844 160.400,87.200 160.133,87.200 159.800 C 87.200 159.467,87.556 159.200,88.000 159.200 C 88.444 159.200,88.800 159.467,88.800 159.800 C 88.800 160.133,89.156 160.400,89.600 160.400 C 90.044 160.400,90.400 160.133,90.400 159.800 C 90.400 159.075,91.451 158.997,91.735 159.700 C 91.896 160.100,91.943 160.100,91.968 159.700 C 92.016 158.941,93.116 159.103,93.324 159.900 C 93.488 160.526,93.512 160.529,93.554 159.927 C 93.582 159.515,94.028 159.188,94.700 159.087 L 95.800 158.920 94.700 158.860 C 93.434 158.791,92.947 156.000,94.200 156.000 C 94.533 156.000,94.800 155.644,94.800 155.200 C 94.800 154.667,95.067 154.400,95.600 154.400 C 96.133 154.400,96.400 154.133,96.400 153.600 C 96.400 153.067,96.667 152.800,97.200 152.800 C 97.733 152.800,98.000 153.067,98.000 153.600 C 98.000 154.133,98.267 154.400,98.800 154.400 C 99.333 154.400,99.600 154.133,99.600 153.600 C 99.600 153.067,99.867 152.800,100.400 152.800 C 100.933 152.800,101.200 152.533,101.200 152.000 C 101.200 151.467,101.467 151.200,102.000 151.200 C 102.533 151.200,102.800 150.933,102.800 150.400 C 102.800 149.867,103.067 149.600,103.600 149.600 C 104.133 149.600,104.400 149.867,104.400 150.400 C 104.400 150.933,104.667 151.200,105.200 151.200 C 105.733 151.200,106.000 150.933,106.000 150.400 C 106.000 149.867,105.733 149.600,105.200 149.600 C 104.667 149.600,104.400 149.333,104.400 148.800 C 104.400 148.267,104.667 148.000,105.200 148.000 C 105.733 148.000,106.000 147.733,106.000 147.200 C 106.000 146.667,106.267 146.400,106.800 146.400 C 107.333 146.400,107.600 146.667,107.600 147.200 C 107.600 147.640,107.859 148.000,108.175 148.000 C 108.523 148.000,108.813 148.511,108.911 149.300 C 109.021 150.191,109.092 149.939,109.136 148.500 C 109.184 146.928,109.351 146.400,109.800 146.400 C 110.133 146.400,110.400 146.044,110.400 145.600 C 110.400 145.156,110.133 144.800,109.800 144.800 C 109.470 144.800,109.200 144.530,109.200 144.200 C 109.200 143.870,109.470 143.600,109.800 143.600 C 110.130 143.600,110.400 143.870,110.400 144.200 C 110.400 144.533,110.756 144.800,111.200 144.800 C 111.644 144.800,112.000 144.533,112.000 144.200 C 112.000 143.729,112.622 143.584,114.900 143.526 C 117.409 143.462,117.517 143.432,115.700 143.305 C 112.223 143.062,112.853 142.008,116.500 141.968 C 118.095 141.951,119.175 141.846,118.900 141.735 C 118.625 141.624,118.400 141.278,118.400 140.967 C 118.400 140.655,118.040 140.400,117.600 140.400 C 117.156 140.400,116.800 140.667,116.800 141.000 C 116.800 141.333,116.444 141.600,116.000 141.600 C 115.556 141.600,115.200 141.333,115.200 141.000 C 115.200 140.667,115.556 140.400,116.000 140.400 C 116.533 140.400,116.800 140.133,116.800 139.600 C 116.800 139.067,117.067 138.800,117.600 138.800 C 118.133 138.800,118.400 138.533,118.400 138.000 C 118.400 137.467,118.667 137.200,119.200 137.200 C 119.733 137.200,120.000 137.467,120.000 138.000 C 120.000 138.533,120.267 138.800,120.800 138.800 C 121.333 138.800,121.600 138.533,121.600 138.000 C 121.600 137.467,121.333 137.200,120.800 137.200 C 120.267 137.200,120.000 136.933,120.000 136.400 C 120.000 135.867,120.267 135.600,120.800 135.600 C 121.333 135.600,121.600 135.333,121.600 134.800 C 121.600 134.267,121.867 134.000,122.400 134.000 C 122.933 134.000,123.200 134.267,123.200 134.800 C 123.200 135.333,123.467 135.600,124.000 135.600 C 124.533 135.600,124.800 135.333,124.800 134.800 C 124.800 134.267,124.533 134.000,124.000 134.000 C 123.467 134.000,123.200 133.733,123.200 133.200 C 123.200 132.667,123.467 132.400,124.000 132.400 C 124.533 132.400,124.800 132.133,124.800 131.600 C 124.800 129.606,126.001 130.842,126.064 132.900 C 126.108 134.339,126.179 134.591,126.289 133.700 C 126.387 132.911,126.677 132.400,127.025 132.400 C 127.461 132.400,127.600 131.820,127.600 130.000 C 127.600 127.867,127.689 127.600,128.400 127.600 C 128.933 127.600,129.200 127.867,129.200 128.400 C 129.200 128.933,129.467 129.200,130.000 129.200 C 130.648 129.200,130.800 128.933,130.800 127.800 L 130.800 126.400 132.900 126.368 C 134.055 126.351,134.775 126.246,134.500 126.135 C 134.225 126.024,134.000 125.678,134.000 125.367 C 134.000 125.055,133.640 124.800,133.200 124.800 C 132.756 124.800,132.400 125.067,132.400 125.400 C 132.400 125.733,132.044 126.000,131.600 126.000 C 131.156 126.000,130.800 125.733,130.800 125.400 C 130.800 125.067,131.156 124.800,131.600 124.800 C 132.133 124.800,132.400 124.533,132.400 124.000 C 132.400 123.467,132.667 123.200,133.200 123.200 C 133.733 123.200,134.000 122.933,134.000 122.400 C 134.000 121.867,134.267 121.600,134.800 121.600 C 135.333 121.600,135.600 121.867,135.600 122.400 C 135.600 122.933,135.867 123.200,136.400 123.200 C 136.933 123.200,137.200 122.933,137.200 122.400 C 137.200 121.867,136.933 121.600,136.400 121.600 C 135.867 121.600,135.600 121.333,135.600 120.800 C 135.600 120.267,135.867 120.000,136.400 120.000 C 136.933 120.000,137.200 119.733,137.200 119.200 C 137.200 118.667,137.467 118.400,138.000 118.400 C 138.533 118.400,138.800 118.667,138.800 119.200 C 138.800 119.733,139.067 120.000,139.600 120.000 C 140.133 120.000,140.400 119.733,140.400 119.200 C 140.400 118.667,140.133 118.400,139.600 118.400 C 139.067 118.400,138.800 118.133,138.800 117.600 C 138.800 117.067,139.067 116.800,139.600 116.800 C 140.133 116.800,140.400 116.533,140.400 116.000 C 140.400 114.085,141.561 115.242,141.705 117.300 C 141.832 119.117,141.862 119.009,141.926 116.500 C 142.019 112.854,143.064 112.248,143.305 115.700 C 143.432 117.517,143.462 117.409,143.526 114.900 C 143.584 112.622,143.729 112.000,144.200 112.000 C 144.533 112.000,144.800 111.644,144.800 111.200 C 144.800 110.756,144.533 110.400,144.200 110.400 C 143.870 110.400,143.600 110.130,143.600 109.800 C 143.600 109.470,143.870 109.200,144.200 109.200 C 144.530 109.200,144.800 109.470,144.800 109.800 C 144.800 110.133,145.156 110.400,145.600 110.400 C 146.044 110.400,146.400 110.133,146.400 109.800 C 146.400 109.351,146.928 109.184,148.500 109.136 C 149.939 109.092,150.191 109.021,149.300 108.911 C 148.511 108.813,148.000 108.523,148.000 108.175 C 148.000 107.859,147.640 107.600,147.200 107.600 C 146.667 107.600,146.400 107.333,146.400 106.800 C 146.400 106.267,146.667 106.000,147.200 106.000 C 147.733 106.000,148.000 106.267,148.000 106.800 C 148.000 107.333,148.267 107.600,148.800 107.600 C 149.333 107.600,149.600 107.333,149.600 106.800 C 149.600 106.267,149.333 106.000,148.800 106.000 C 148.267 106.000,148.000 105.733,148.000 105.200 C 148.000 104.667,148.267 104.400,148.800 104.400 C 149.333 104.400,149.600 104.133,149.600 103.600 C 149.600 103.067,149.867 102.800,150.400 102.800 C 150.933 102.800,151.200 102.533,151.200 102.000 C 151.200 101.467,151.467 101.200,152.000 101.200 C 152.533 101.200,152.800 100.933,152.800 100.400 C 152.800 99.867,153.067 99.600,153.600 99.600 C 154.133 99.600,154.400 99.333,154.400 98.800 C 154.400 98.267,154.667 98.000,155.200 98.000 C 155.733 98.000,156.000 97.733,156.000 97.200 C 156.000 96.667,155.733 96.400,155.200 96.400 C 154.667 96.400,154.400 96.133,154.400 95.600 C 154.400 95.067,154.667 94.800,155.200 94.800 C 155.644 94.800,156.000 94.533,156.000 94.200 C 156.000 92.969,158.722 93.436,158.913 94.700 L 159.080 95.800 159.140 94.729 C 159.176 94.080,159.476 93.587,159.900 93.476 C 160.567 93.302,160.567 93.291,159.900 93.246 C 159.098 93.193,158.950 92.168,159.700 91.865 C 160.100 91.704,160.100 91.657,159.700 91.632 C 158.917 91.582,159.016 87.200,159.800 87.200 C 160.133 87.200,160.400 86.844,160.400 86.400 C 160.400 85.956,160.133 85.600,159.800 85.600 C 159.467 85.600,159.200 85.244,159.200 84.800 C 159.200 84.356,159.467 84.000,159.800 84.000 C 160.133 84.000,160.400 84.356,160.400 84.800 C 160.400 85.333,160.667 85.600,161.200 85.600 C 161.911 85.600,162.000 85.333,162.000 83.200 C 162.000 81.067,162.089 80.800,162.800 80.800 C 163.333 80.800,163.600 81.067,163.600 81.600 C 163.600 82.133,163.867 82.400,164.400 82.400 C 164.933 82.400,165.200 82.133,165.200 81.600 C 165.200 81.067,164.933 80.800,164.400 80.800 C 163.867 80.800,163.600 80.533,163.600 80.000 C 163.600 79.467,163.867 79.200,164.400 79.200 C 165.048 79.200,165.200 78.933,165.200 77.800 L 165.200 76.400 167.300 76.368 C 168.455 76.351,169.175 76.246,168.900 76.135 C 168.625 76.024,168.400 75.678,168.400 75.367 C 168.400 75.055,168.040 74.800,167.600 74.800 C 167.156 74.800,166.800 75.067,166.800 75.400 C 166.800 75.733,166.444 76.000,166.000 76.000 C 165.556 76.000,165.200 75.733,165.200 75.400 C 165.200 75.067,165.556 74.800,166.000 74.800 C 166.533 74.800,166.800 74.533,166.800 74.000 C 166.800 73.467,167.067 73.200,167.600 73.200 C 168.133 73.200,168.400 72.933,168.400 72.400 C 168.400 71.867,168.133 71.600,167.600 71.600 C 167.067 71.600,166.800 71.333,166.800 70.800 C 166.800 70.267,167.067 70.000,167.600 70.000 C 168.133 70.000,168.400 69.733,168.400 69.200 C 168.400 68.667,168.667 68.400,169.200 68.400 C 169.733 68.400,170.000 68.133,170.000 67.600 C 170.000 67.067,170.267 66.800,170.800 66.800 C 171.333 66.800,171.600 66.533,171.600 66.000 C 171.600 65.467,171.333 65.200,170.800 65.200 C 170.267 65.200,170.000 64.933,170.000 64.400 C 170.000 63.867,170.267 63.600,170.800 63.600 C 171.503 63.600,171.600 63.333,171.600 61.400 L 171.600 59.200 173.767 59.200 C 175.126 59.200,176.009 59.386,176.135 59.700 C 176.246 59.975,176.351 59.835,176.368 59.389 C 176.396 58.681,176.198 58.598,174.800 58.731 C 173.535 58.852,173.200 58.750,173.200 58.242 C 173.200 57.867,172.868 57.600,172.400 57.600 C 171.867 57.600,171.600 57.333,171.600 56.800 C 171.600 56.267,171.867 56.000,172.400 56.000 C 172.933 56.000,173.200 56.267,173.200 56.800 C 173.200 57.333,173.467 57.600,174.000 57.600 C 174.533 57.600,174.800 57.333,174.800 56.800 C 174.800 56.267,174.533 56.000,174.000 56.000 C 173.467 56.000,173.200 55.733,173.200 55.200 C 173.200 54.667,173.467 54.400,174.000 54.400 C 174.711 54.400,174.800 54.133,174.800 52.000 C 174.800 47.658,175.941 48.798,176.102 53.300 L 176.234 57.000 176.317 52.500 C 176.385 48.804,176.507 48.000,177.000 48.000 C 177.333 48.000,177.600 47.644,177.600 47.200 C 177.600 46.756,177.333 46.400,177.000 46.400 C 176.667 46.400,176.400 46.044,176.400 45.600 C 176.400 45.156,176.667 44.800,177.000 44.800 C 177.330 44.800,177.600 44.541,177.600 44.225 C 177.600 43.877,178.111 43.587,178.900 43.489 C 179.899 43.365,179.760 43.313,178.300 43.264 C 175.324 43.164,175.666 42.022,178.700 41.930 C 180.695 41.870,180.774 41.840,179.300 41.707 L 177.600 41.554 177.600 39.377 C 177.600 37.467,177.698 37.200,178.400 37.200 C 178.933 37.200,179.200 36.933,179.200 36.400 C 179.200 35.867,179.467 35.600,180.000 35.600 C 180.533 35.600,180.800 35.333,180.800 34.800 C 180.800 34.267,180.533 34.000,180.000 34.000 C 179.467 34.000,179.200 33.733,179.200 33.200 C 179.200 32.667,179.467 32.400,180.000 32.400 C 180.533 32.400,180.800 32.133,180.800 31.600 C 180.800 31.067,180.533 30.800,180.000 30.800 C 179.467 30.800,179.200 30.533,179.200 30.000 C 179.200 29.467,179.467 29.200,180.000 29.200 C 180.533 29.200,180.800 28.933,180.800 28.400 C 180.800 27.867,180.533 27.600,180.000 27.600 C 177.719 27.600,179.330 26.396,181.700 26.330 C 183.674 26.275,183.842 26.228,182.500 26.107 L 180.800 25.954 180.800 22.177 C 180.800 18.667,180.856 18.400,181.600 18.400 C 182.133 18.400,182.400 18.133,182.400 17.600 C 182.400 17.067,182.133 16.800,181.600 16.800 C 181.067 16.800,180.800 16.533,180.800 16.000 C 180.800 15.467,181.067 15.200,181.600 15.200 C 182.133 15.200,182.400 14.933,182.400 14.400 C 182.400 13.867,182.667 13.600,183.200 13.600 C 183.733 13.600,184.000 13.333,184.000 12.800 C 184.000 12.267,183.733 12.000,183.200 12.000 C 182.667 12.000,182.400 11.733,182.400 11.200 C 182.400 10.667,182.133 10.400,181.600 10.400 C 181.156 10.400,180.800 10.133,180.800 9.800 C 180.800 9.467,181.156 9.200,181.600 9.200 C 182.044 9.200,182.400 9.467,182.400 9.800 C 182.400 10.133,182.756 10.400,183.200 10.400 C 183.640 10.400,184.000 10.143,184.000 9.828 C 184.000 9.513,184.405 9.178,184.900 9.082 C 185.395 8.987,185.035 8.884,184.100 8.854 C 182.880 8.815,182.400 8.631,182.400 8.200 C 182.400 7.867,182.044 7.600,181.600 7.600 C 181.067 7.600,180.800 7.333,180.800 6.800 C 180.800 6.267,181.067 6.000,181.600 6.000 C 182.133 6.000,182.400 6.267,182.400 6.800 C 182.400 7.333,182.667 7.600,183.200 7.600 C 183.733 7.600,184.000 7.333,184.000 6.800 C 184.000 6.267,183.733 6.000,183.200 6.000 C 182.667 6.000,182.400 5.733,182.400 5.200 C 182.400 4.667,182.667 4.400,183.200 4.400 C 183.733 4.400,184.000 4.133,184.000 3.600 C 184.000 3.067,183.733 2.800,183.200 2.800 C 182.667 2.800,182.400 2.533,182.400 2.000 C 182.400 1.467,182.667 1.200,183.200 1.200 C 183.644 1.200,184.000 0.933,184.000 0.600 C 184.000 0.267,183.644 0.000,183.200 0.000 C 182.756 0.000,182.400 0.267,182.400 0.600 C 182.400 0.933,182.044 1.200,181.600 1.200 C 181.156 1.200,180.800 0.933,180.800 0.600 C 180.800 0.068,170.489 0.000,90.400 0.000 L 0.000 0.000 0.000 90.400 M182.400 3.600 C 182.400 4.133,182.133 4.400,181.600 4.400 C 181.067 4.400,180.800 4.133,180.800 3.600 C 180.800 3.067,181.067 2.800,181.600 2.800 C 182.133 2.800,182.400 3.067,182.400 3.600 M182.400 12.800 C 182.400 13.333,182.133 13.600,181.600 13.600 C 181.067 13.600,180.800 13.333,180.800 12.800 C 180.800 12.267,181.067 12.000,181.600 12.000 C 182.133 12.000,182.400 12.267,182.400 12.800 M179.200 31.600 C 179.200 32.133,178.933 32.400,178.400 32.400 C 177.867 32.400,177.600 32.133,177.600 31.600 C 177.600 31.067,177.867 30.800,178.400 30.800 C 178.933 30.800,179.200 31.067,179.200 31.600 M179.200 34.800 C 179.200 35.333,178.933 35.600,178.400 35.600 C 177.867 35.600,177.600 35.333,177.600 34.800 C 177.600 34.267,177.867 34.000,178.400 34.000 C 178.933 34.000,179.200 34.267,179.200 34.800 M176.000 44.200 C 176.000 44.530,175.730 44.800,175.400 44.800 C 175.070 44.800,174.800 44.530,174.800 44.200 C 174.800 43.870,175.070 43.600,175.400 43.600 C 175.730 43.600,176.000 43.870,176.000 44.200 M176.000 47.200 C 176.000 47.644,175.733 48.000,175.400 48.000 C 175.067 48.000,174.800 47.644,174.800 47.200 C 174.800 46.756,175.067 46.400,175.400 46.400 C 175.733 46.400,176.000 46.756,176.000 47.200 M170.000 66.000 C 170.000 66.533,169.733 66.800,169.200 66.800 C 168.667 66.800,168.400 66.533,168.400 66.000 C 168.400 65.467,168.667 65.200,169.200 65.200 C 169.733 65.200,170.000 65.467,170.000 66.000 M166.800 72.400 C 166.800 72.933,166.533 73.200,166.000 73.200 C 165.467 73.200,165.200 72.933,165.200 72.400 C 165.200 71.867,165.467 71.600,166.000 71.600 C 166.533 71.600,166.800 71.867,166.800 72.400 M160.400 88.000 C 160.400 88.533,160.667 88.800,161.200 88.800 C 161.733 88.800,162.000 88.533,162.000 88.000 C 162.000 87.467,161.733 87.200,161.200 87.200 C 160.667 87.200,160.400 87.467,160.400 88.000 M157.600 91.000 C 157.600 91.333,157.244 91.600,156.800 91.600 C 156.356 91.600,156.000 91.333,156.000 91.000 C 156.000 90.667,156.356 90.400,156.800 90.400 C 157.244 90.400,157.600 90.667,157.600 91.000 M158.800 92.600 C 158.800 92.930,158.530 93.200,158.200 93.200 C 157.870 93.200,157.600 92.930,157.600 92.600 C 157.600 92.270,157.870 92.000,158.200 92.000 C 158.530 92.000,158.800 92.270,158.800 92.600 M154.400 97.200 C 154.400 97.733,154.133 98.000,153.600 98.000 C 153.067 98.000,152.800 97.733,152.800 97.200 C 152.800 96.667,153.067 96.400,153.600 96.400 C 154.133 96.400,154.400 96.667,154.400 97.200 M198.662 115.931 C 198.099 116.554,198.000 117.716,198.000 123.731 L 198.000 130.800 191.676 130.800 C 183.934 130.800,183.910 130.812,184.079 134.410 L 184.200 137.000 191.100 137.109 L 198.000 137.219 198.000 144.529 C 198.000 152.981,197.924 152.800,201.456 152.800 C 204.679 152.800,204.564 153.081,204.800 144.600 L 205.000 137.400 211.600 137.294 C 219.131 137.173,219.200 137.143,219.200 133.946 C 219.200 130.994,218.700 130.800,211.111 130.800 L 204.800 130.800 204.800 123.662 C 204.800 117.255,204.725 116.456,204.069 115.862 C 203.023 114.916,199.541 114.960,198.662 115.931 M203.986 116.774 C 204.225 117.220,204.400 120.433,204.400 124.374 L 204.400 131.200 210.724 131.200 C 218.330 131.200,218.502 131.273,218.324 134.412 L 218.200 136.600 212.200 136.697 C 203.477 136.838,204.400 135.970,204.400 144.034 C 204.400 152.224,204.337 152.400,201.410 152.400 C 198.571 152.400,198.632 152.569,198.400 144.200 L 198.200 137.000 191.828 136.889 C 184.716 136.766,184.400 136.655,184.400 134.283 C 184.400 131.369,184.819 131.200,192.062 131.200 L 198.400 131.200 198.400 124.229 C 198.400 116.149,198.458 116.000,201.614 116.000 C 203.140 116.000,203.663 116.171,203.986 116.774 M153.462 132.331 C 152.881 132.974,152.800 134.366,152.800 143.731 L 152.800 154.400 142.800 154.400 C 136.400 154.400,132.800 154.544,132.800 154.800 C 132.800 155.020,132.530 155.200,132.200 155.200 C 131.717 155.200,131.602 155.805,131.613 158.300 C 131.632 163.079,130.943 162.800,142.744 162.800 L 152.800 162.800 152.800 173.538 C 152.800 186.353,152.501 185.600,157.587 185.600 C 162.238 185.600,161.972 186.332,161.987 173.500 L 162.000 162.800 172.120 162.800 C 183.901 162.800,183.200 163.062,183.200 158.664 C 183.200 154.208,183.786 154.428,171.900 154.413 L 162.000 154.400 162.000 143.480 C 162.000 135.520,161.870 132.430,161.520 132.080 C 160.687 131.247,154.262 131.447,153.462 132.331 M241.289 132.223 C 240.408 132.840,240.400 132.939,240.400 143.623 L 240.400 154.400 230.786 154.400 C 218.954 154.400,219.194 154.314,219.213 158.546 C 219.226 161.413,219.750 162.800,220.821 162.800 C 221.178 162.800,221.125 162.633,220.658 162.292 C 220.079 161.869,219.983 161.250,220.082 158.592 L 220.200 155.400 230.181 155.293 C 237.554 155.214,240.243 155.057,240.475 154.693 C 240.647 154.422,240.791 149.643,240.794 144.074 C 240.801 131.716,240.545 132.400,245.165 132.400 C 249.885 132.400,249.568 131.572,249.693 144.233 L 249.800 155.000 259.728 155.107 C 266.386 155.179,269.573 155.080,269.404 154.807 C 269.245 154.549,265.640 154.400,259.576 154.400 L 250.000 154.400 250.000 143.610 L 250.000 132.821 248.820 132.210 C 247.218 131.382,242.478 131.390,241.289 132.223 M161.107 143.367 C 161.176 150.408,161.364 154.316,161.650 154.660 C 161.985 155.064,164.423 155.211,172.143 155.293 L 182.200 155.400 182.318 158.565 C 182.470 162.634,183.150 162.387,171.780 162.394 C 164.838 162.398,162.026 162.534,161.680 162.880 C 161.331 163.229,161.200 166.228,161.200 173.866 C 161.200 185.930,161.451 185.200,157.303 185.200 C 153.432 185.200,153.621 185.789,153.503 173.400 L 153.400 162.600 143.432 162.493 C 131.729 162.367,132.326 162.588,132.484 158.438 L 132.600 155.400 142.568 155.293 C 149.102 155.223,152.719 155.034,153.068 154.744 C 153.486 154.396,153.600 152.024,153.600 143.618 C 153.600 131.281,153.221 132.340,157.581 132.486 L 161.000 132.600 161.107 143.367 M270.350 156.069 C 270.646 156.847,270.706 159.992,270.461 161.871 C 270.428 162.130,270.085 162.424,269.700 162.524 C 269.169 162.663,269.215 162.718,269.892 162.754 C 271.279 162.826,271.853 155.746,270.497 155.297 C 270.125 155.174,270.086 155.375,270.350 156.069 M91.600 156.800 C 91.600 157.244,91.333 157.600,91.000 157.600 C 90.667 157.600,90.400 157.244,90.400 156.800 C 90.400 156.356,90.667 156.000,91.000 156.000 C 91.333 156.000,91.600 156.356,91.600 156.800 M94.800 156.800 C 94.800 157.333,95.067 157.600,95.600 157.600 C 96.133 157.600,96.400 157.333,96.400 156.800 C 96.400 156.267,96.133 156.000,95.600 156.000 C 95.067 156.000,94.800 156.267,94.800 156.800 M93.200 158.200 C 93.200 158.530,92.930 158.800,92.600 158.800 C 92.270 158.800,92.000 158.530,92.000 158.200 C 92.000 157.870,92.270 157.600,92.600 157.600 C 92.930 157.600,93.200 157.870,93.200 158.200 M240.487 173.438 C 240.383 186.403,240.065 185.600,245.309 185.600 C 250.264 185.600,250.021 186.253,249.907 173.211 L 249.814 162.600 249.700 173.176 C 249.564 185.809,249.789 185.203,245.238 185.194 C 240.689 185.185,241.032 186.087,240.787 173.515 L 240.575 162.600 240.487 173.438 M73.200 166.000 C 73.200 166.533,72.933 166.800,72.400 166.800 C 71.867 166.800,71.600 167.067,71.600 167.600 C 71.600 168.133,71.333 168.400,70.800 168.400 C 70.267 168.400,70.000 168.133,70.000 167.600 C 70.000 167.067,70.267 166.800,70.800 166.800 C 71.333 166.800,71.600 166.533,71.600 166.000 C 71.600 165.467,71.867 165.200,72.400 165.200 C 72.933 165.200,73.200 165.467,73.200 166.000 M196.189 169.700 C 196.086 169.975,195.957 175.600,195.901 182.200 L 195.800 194.200 184.500 194.306 C 174.214 194.403,173.200 194.473,173.200 195.086 C 173.200 195.610,173.307 195.653,173.680 195.280 C 174.029 194.931,177.058 194.800,184.800 194.800 C 192.542 194.800,195.571 194.669,195.920 194.320 C 196.271 193.969,196.400 190.754,196.400 182.353 C 196.400 168.235,195.887 169.600,201.194 169.600 C 206.836 169.600,206.368 168.451,206.494 182.634 L 206.600 194.600 217.915 194.800 C 227.369 194.967,229.297 195.099,229.637 195.600 C 229.970 196.092,230.020 196.056,229.916 195.400 C 229.793 194.624,229.439 194.597,218.295 194.494 L 206.800 194.388 206.795 182.694 C 206.788 167.662,207.409 169.200,201.341 169.200 C 197.734 169.200,196.324 169.337,196.189 169.700 M44.800 175.400 C 44.800 175.730,44.530 176.000,44.200 176.000 C 43.870 176.000,43.600 175.730,43.600 175.400 C 43.600 175.070,43.870 174.800,44.200 174.800 C 44.530 174.800,44.800 175.070,44.800 175.400 M48.000 175.400 C 48.000 175.733,47.644 176.000,47.200 176.000 C 46.756 176.000,46.400 175.733,46.400 175.400 C 46.400 175.067,46.756 174.800,47.200 174.800 C 47.644 174.800,48.000 175.067,48.000 175.400 M51.200 175.400 C 51.200 175.733,50.844 176.000,50.400 176.000 C 49.956 176.000,49.600 175.733,49.600 175.400 C 49.600 175.067,49.956 174.800,50.400 174.800 C 50.844 174.800,51.200 175.067,51.200 175.400 M43.200 177.000 C 43.200 177.330,42.930 177.600,42.600 177.600 C 42.270 177.600,42.000 177.330,42.000 177.000 C 42.000 176.670,42.270 176.400,42.600 176.400 C 42.930 176.400,43.200 176.670,43.200 177.000 M265.088 180.500 C 264.384 181.029,263.816 196.002,264.500 196.000 C 264.665 196.000,264.800 192.706,264.800 188.680 C 264.800 180.108,264.663 180.400,268.666 180.400 C 272.458 180.400,272.400 180.266,272.400 188.974 C 272.400 192.838,272.535 196.000,272.700 196.001 C 273.328 196.002,272.646 180.798,272.000 180.391 C 271.110 179.829,265.870 179.912,265.088 180.500 M129.823 181.689 C 129.319 182.408,129.200 183.862,129.200 189.289 L 129.200 196.000 122.862 196.000 C 115.382 196.000,115.200 196.087,115.200 199.651 C 115.200 202.802,115.195 202.800,122.680 202.800 L 129.200 202.800 129.203 207.300 C 129.208 215.090,129.527 217.142,130.840 217.821 C 132.314 218.583,134.191 218.556,135.414 217.754 L 136.400 217.108 136.400 209.954 L 136.400 202.800 142.626 202.800 C 150.344 202.800,150.400 202.775,150.400 199.376 C 150.400 196.057,150.266 196.000,142.374 196.000 L 136.400 196.000 136.400 188.814 C 136.400 180.556,136.514 180.800,132.649 180.800 C 130.825 180.800,130.338 180.953,129.823 181.689 M135.154 181.900 C 135.945 182.557,136.004 183.035,136.099 189.600 L 136.200 196.600 142.572 196.711 C 149.721 196.835,150.000 196.936,150.000 199.400 C 150.000 201.864,149.721 201.965,142.572 202.089 L 136.200 202.200 136.090 209.370 C 135.965 217.582,135.958 217.600,132.975 217.600 C 130.181 217.600,130.233 217.739,130.000 209.600 L 129.800 202.600 123.000 202.400 L 116.200 202.200 116.074 200.432 C 115.804 196.652,115.522 196.800,122.965 196.800 C 130.760 196.800,130.000 197.628,130.000 189.141 C 130.000 185.499,130.178 182.414,130.414 181.974 C 130.964 180.946,133.950 180.900,135.154 181.900 M250.400 199.320 C 250.400 203.762,250.117 203.600,257.880 203.600 L 264.400 203.600 264.400 210.920 C 264.400 219.580,264.204 219.200,268.666 219.200 C 272.920 219.200,272.800 219.449,272.800 210.626 L 272.800 203.600 279.338 203.600 C 287.080 203.600,287.200 203.542,287.200 199.842 C 287.200 197.521,286.710 196.000,285.963 196.000 C 285.739 196.000,285.835 196.400,286.177 196.889 C 286.544 197.413,286.800 198.620,286.800 199.827 C 286.800 203.085,286.529 203.200,278.869 203.200 L 272.400 203.200 272.400 210.226 C 272.400 218.943,272.463 218.800,268.635 218.800 C 264.723 218.800,264.839 219.044,264.710 210.570 L 264.600 203.400 258.228 203.289 C 254.360 203.222,251.649 203.007,251.328 202.741 C 250.616 202.150,250.592 196.551,251.300 196.265 C 251.599 196.144,251.518 196.050,251.100 196.032 C 250.487 196.004,250.400 196.413,250.400 199.320 M229.503 203.694 C 229.254 204.326,228.222 204.397,217.915 204.494 L 206.600 204.600 206.591 216.600 L 206.581 228.600 206.697 216.945 C 206.802 206.271,206.870 205.276,207.506 205.121 C 207.888 205.028,213.060 204.901,219.000 204.840 C 230.743 204.719,230.135 204.780,229.924 203.731 C 229.787 203.052,229.757 203.049,229.503 203.694 M173.333 204.600 C 173.417 204.851,177.673 205.040,184.733 205.106 L 196.000 205.212 196.000 217.606 C 196.000 229.004,196.055 230.000,196.680 230.000 C 197.209 230.000,197.253 229.893,196.880 229.520 C 196.529 229.169,196.398 225.873,196.394 217.220 C 196.391 210.719,196.248 205.181,196.078 204.912 C 195.679 204.285,173.125 203.975,173.333 204.600 M153.300 213.065 C 152.917 213.220,152.800 215.874,152.800 224.433 L 152.800 235.600 142.823 235.600 C 131.127 235.600,131.590 235.418,131.613 239.989 C 131.625 242.571,132.181 244.000,133.173 244.000 C 133.491 244.000,133.441 243.784,133.029 243.371 C 132.208 242.551,132.133 237.120,132.932 236.456 C 133.280 236.167,136.846 235.977,143.232 235.907 L 153.000 235.800 153.107 225.033 C 153.177 217.907,153.363 214.086,153.656 213.733 C 154.343 212.905,160.323 213.006,161.269 213.862 C 161.910 214.443,162.000 214.448,162.000 213.905 C 162.000 212.902,155.305 212.256,153.300 213.065 M241.062 213.531 C 240.481 214.174,240.400 215.566,240.400 224.931 L 240.400 235.600 230.410 235.600 L 220.421 235.600 219.810 236.780 C 218.568 239.183,219.262 244.022,220.844 243.988 C 221.230 243.979,221.186 243.851,220.700 243.568 C 219.803 243.046,219.665 237.176,220.532 236.456 C 220.880 236.167,224.446 235.977,230.832 235.907 L 240.600 235.800 240.800 225.000 C 241.036 212.258,240.684 213.200,245.210 213.200 C 249.872 213.200,249.600 212.447,249.600 225.374 L 249.600 236.000 259.367 236.000 C 264.739 236.000,269.419 236.109,269.767 236.243 C 270.744 236.618,270.685 242.994,269.700 243.568 C 269.048 243.948,269.047 243.977,269.686 243.988 C 271.123 244.013,271.833 239.028,270.736 236.619 L 270.272 235.600 260.154 235.600 L 250.036 235.600 249.918 224.585 C 249.819 215.318,249.705 213.510,249.200 213.191 C 248.033 212.454,241.801 212.715,241.062 213.531 M172.000 235.990 L 182.200 236.200 182.318 239.592 C 182.416 242.438,182.324 243.067,181.741 243.492 C 181.186 243.899,181.166 244.000,181.644 244.000 C 182.823 244.000,183.200 243.055,183.200 240.094 C 183.200 235.256,184.032 235.586,172.086 235.690 L 161.800 235.779 172.000 235.990 M240.497 254.600 C 240.440 263.158,240.538 265.548,240.968 266.115 C 241.701 267.082,249.219 266.981,249.518 266.000 C 249.665 265.516,249.598 265.496,249.170 265.900 C 248.829 266.221,247.391 266.400,245.144 266.400 C 240.695 266.400,241.038 267.329,240.785 254.600 L 240.569 243.800 240.497 254.600 M249.763 250.400 C 249.763 254.030,249.823 255.515,249.898 253.700 C 249.972 251.885,249.972 248.915,249.898 247.100 C 249.823 245.285,249.763 246.770,249.763 250.400 M152.990 255.400 L 153.000 266.600 156.600 266.718 C 161.083 266.864,162.000 266.658,162.000 265.503 L 162.000 264.622 161.377 265.511 C 160.625 266.585,154.487 266.868,153.656 265.867 C 153.364 265.516,153.174 261.731,153.097 254.767 L 152.980 244.200 152.990 255.400 M200.500 245.087 C 201.105 245.178,202.095 245.178,202.700 245.087 C 203.305 244.995,202.810 244.920,201.600 244.920 C 200.390 244.920,199.895 244.995,200.500 245.087 M197.724 245.700 C 197.546 245.975,197.310 249.530,197.200 253.600 L 197.000 261.000 191.000 261.097 C 182.690 261.231,183.200 261.007,183.200 264.528 C 183.200 268.502,183.004 268.400,190.656 268.400 L 197.152 268.400 197.276 276.015 C 197.420 284.853,197.177 284.385,201.620 284.394 C 205.761 284.402,205.600 284.746,205.600 275.920 L 205.600 268.400 212.138 268.400 C 219.929 268.400,220.000 268.365,220.000 264.492 C 220.000 261.346,220.209 261.437,212.400 261.200 L 205.800 261.000 205.578 253.200 C 205.337 244.741,205.383 245.200,204.786 245.200 C 204.500 245.200,204.500 245.440,204.786 245.974 C 205.025 246.420,205.200 249.623,205.200 253.541 C 205.200 262.485,204.435 261.600,212.163 261.600 C 219.624 261.600,219.600 261.590,219.600 264.831 C 219.600 267.953,219.578 267.962,211.971 268.090 L 205.400 268.200 205.291 275.570 C 205.162 284.264,205.285 284.000,201.375 284.000 C 197.651 284.000,197.838 284.416,197.600 275.600 L 197.400 268.200 191.028 268.089 C 183.452 267.958,183.526 267.995,183.683 264.437 L 183.800 261.800 190.600 261.600 L 197.400 261.400 197.509 254.021 C 197.601 247.864,197.727 246.523,198.271 245.921 C 198.630 245.525,198.727 245.200,198.486 245.200 C 198.244 245.200,197.902 245.425,197.724 245.700 " stroke="none" fill="#1caae4" fill-rule="evenodd"></path><path id="path3" d="M199.029 116.629 C 198.505 117.152,198.400 118.424,198.400 124.229 L 198.400 131.200 192.062 131.200 C 186.430 131.200,185.650 131.281,185.062 131.931 C 184.181 132.904,184.184 135.724,185.065 136.451 C 185.667 136.947,185.686 136.916,185.265 136.126 C 184.758 135.174,184.660 133.631,185.043 132.633 C 185.250 132.093,186.208 132.000,191.563 132.000 C 199.407 132.000,198.800 132.638,198.800 124.396 C 198.800 116.468,198.887 116.245,201.889 116.456 C 203.009 116.535,203.841 116.465,203.739 116.300 C 203.380 115.721,199.678 115.979,199.029 116.629 M204.090 124.257 C 203.983 132.875,203.131 132.000,211.633 132.000 L 218.000 132.000 218.000 134.167 C 218.000 135.358,217.816 136.425,217.590 136.537 C 217.365 136.649,217.410 136.694,217.690 136.639 C 218.008 136.575,218.247 135.726,218.324 134.381 C 218.502 131.278,218.317 131.200,210.733 131.200 L 204.418 131.200 204.299 124.100 L 204.180 117.000 204.090 124.257 M153.881 132.652 C 153.726 132.807,153.600 137.741,153.600 143.618 C 153.600 152.024,153.486 154.396,153.068 154.744 C 152.719 155.034,149.102 155.223,142.568 155.293 L 132.600 155.400 132.484 158.438 C 132.326 162.588,131.729 162.367,143.432 162.493 L 153.400 162.600 153.503 173.400 C 153.621 185.789,153.432 185.200,157.303 185.200 C 159.680 185.200,161.200 184.715,161.200 183.957 C 161.200 183.729,160.917 183.826,160.571 184.171 C 160.143 184.600,159.197 184.800,157.604 184.800 C 153.695 184.800,154.001 185.744,153.994 173.657 C 153.991 167.796,153.847 162.778,153.675 162.507 C 153.443 162.142,150.714 161.986,143.181 161.907 L 133.000 161.800 132.883 158.700 L 132.766 155.600 142.755 155.600 C 151.302 155.600,152.834 155.509,153.371 154.971 C 153.912 154.431,154.000 152.830,154.000 143.571 L 154.000 132.800 157.367 132.800 C 159.267 132.800,160.822 132.979,160.937 133.210 C 161.049 133.436,161.094 133.391,161.038 133.110 C 160.926 132.554,154.397 132.136,153.881 132.652 M241.461 132.700 C 241.359 132.865,243.013 133.000,245.137 133.000 L 249.000 133.000 249.106 144.100 C 249.165 150.205,249.255 155.236,249.306 155.280 C 249.592 155.524,270.313 155.751,270.068 155.507 C 269.907 155.346,265.280 155.166,259.787 155.107 L 249.800 155.000 249.693 144.233 C 249.623 137.107,249.437 133.286,249.144 132.933 C 248.664 132.354,241.805 132.146,241.461 132.700 M240.887 143.800 C 240.832 149.520,240.647 154.422,240.475 154.693 C 240.243 155.057,237.554 155.214,230.181 155.293 L 220.200 155.400 220.082 158.592 C 219.917 163.017,219.350 162.800,231.076 162.800 L 240.800 162.800 240.800 173.371 C 240.800 185.897,240.543 185.200,245.167 185.200 C 249.829 185.200,249.600 185.816,249.600 173.275 L 249.600 162.814 259.400 162.696 L 269.200 162.579 259.300 162.589 L 249.400 162.600 249.297 173.200 C 249.178 185.450,249.407 184.800,245.200 184.800 C 240.993 184.800,241.222 185.450,241.103 173.200 L 241.000 162.600 230.800 162.383 C 218.804 162.127,220.400 162.677,220.400 158.800 L 220.400 155.600 230.300 155.594 C 235.745 155.591,240.428 155.443,240.707 155.266 C 241.100 155.017,241.188 152.530,241.100 144.172 L 240.986 133.400 240.887 143.800 M198.400 144.099 C 198.605 151.598,198.760 152.433,199.924 152.354 C 200.536 152.312,200.538 152.291,199.941 152.132 C 198.951 151.869,198.811 150.808,198.805 143.500 C 198.802 139.815,198.665 136.800,198.500 136.799 C 198.335 136.799,198.290 140.084,198.400 144.099 M204.090 144.100 L 204.180 151.400 204.300 144.418 C 204.385 139.455,204.561 137.345,204.910 137.124 C 205.251 136.907,205.188 136.810,204.700 136.806 C 204.055 136.800,204.007 137.378,204.090 144.100 M161.200 154.708 C 161.200 155.492,162.544 155.600,172.250 155.600 L 182.034 155.600 181.917 158.700 L 181.800 161.800 171.633 162.000 C 163.062 162.169,161.437 162.294,161.283 162.800 C 161.135 163.284,161.202 163.304,161.630 162.900 C 162.023 162.529,164.640 162.398,171.780 162.394 C 183.150 162.387,182.470 162.634,182.318 158.565 L 182.200 155.400 172.232 155.293 C 165.698 155.223,162.081 155.034,161.732 154.744 C 161.395 154.464,161.200 154.451,161.200 154.708 M196.643 170.233 C 196.509 170.581,196.400 176.035,196.400 182.353 C 196.400 190.754,196.271 193.969,195.920 194.320 C 195.571 194.669,192.535 194.800,184.769 194.800 C 172.138 194.800,173.128 194.347,173.286 200.058 L 173.400 204.200 184.580 204.306 C 192.913 204.386,195.841 204.539,196.074 204.906 C 196.247 205.178,196.391 210.719,196.394 217.220 C 196.401 231.072,195.998 230.000,201.204 230.000 C 206.842 230.000,206.377 231.160,206.497 216.800 L 206.600 204.600 217.800 204.497 C 230.933 204.376,230.003 204.748,229.994 199.624 C 229.985 194.620,231.017 195.032,217.915 194.800 L 206.600 194.600 206.494 182.634 C 206.371 168.734,206.632 169.573,202.451 169.673 L 199.400 169.747 202.600 169.973 L 205.800 170.200 206.015 182.600 C 206.133 189.420,206.268 195.045,206.315 195.100 C 206.362 195.155,211.404 195.200,217.520 195.200 C 230.455 195.200,229.600 194.899,229.600 199.447 C 229.600 204.469,230.815 204.000,217.800 204.000 C 207.852 204.000,206.456 204.076,206.243 204.633 C 206.109 204.981,206.000 210.539,206.000 216.984 C 206.000 230.777,206.445 229.676,200.941 229.515 L 197.000 229.400 196.894 217.234 C 196.823 209.072,196.642 204.892,196.345 204.534 C 195.995 204.112,193.558 204.000,184.737 204.000 L 173.573 204.000 173.686 199.700 L 173.800 195.400 184.767 195.293 C 192.041 195.223,195.913 195.038,196.267 194.744 C 196.689 194.394,196.800 191.823,196.800 182.371 C 196.800 171.430,196.858 170.406,197.500 170.032 C 198.121 169.670,198.126 169.623,197.543 169.612 C 197.181 169.605,196.776 169.885,196.643 170.233 M265.280 180.880 C 265.016 181.144,264.811 181.639,264.825 181.980 C 264.840 182.347,265.003 182.220,265.224 181.669 C 265.577 180.788,265.765 180.746,268.762 180.869 C 270.502 180.941,271.842 180.865,271.740 180.700 C 271.427 180.198,265.805 180.355,265.280 180.880 M130.600 181.600 C 130.446 181.850,131.248 182.000,132.734 182.000 C 135.723 182.000,135.600 181.658,135.600 189.990 C 135.600 197.978,134.799 197.200,143.025 197.200 C 149.884 197.200,149.880 197.198,149.531 200.252 L 149.400 201.400 143.400 201.497 C 134.675 201.638,135.637 200.661,135.509 209.505 L 135.400 217.000 132.937 217.000 C 131.583 217.000,130.558 217.135,130.661 217.300 C 130.988 217.827,135.073 217.635,135.542 217.070 C 135.815 216.741,136.022 213.832,136.090 209.370 L 136.200 202.200 142.572 202.089 C 149.721 201.965,150.000 201.864,150.000 199.400 C 150.000 196.936,149.721 196.835,142.572 196.711 L 136.200 196.600 136.099 189.600 C 136.004 183.035,135.945 182.557,135.154 181.900 C 134.233 181.135,131.018 180.923,130.600 181.600 M272.090 188.710 L 272.000 196.020 273.026 196.410 C 273.590 196.624,276.748 196.800,280.044 196.800 L 286.035 196.800 285.918 199.700 L 285.800 202.600 279.000 202.800 L 272.200 203.000 272.186 210.300 L 272.172 217.601 272.295 210.400 L 272.418 203.200 278.947 203.200 C 286.562 203.200,286.800 203.096,286.800 199.758 C 286.800 196.103,286.585 196.000,278.986 196.000 L 272.418 196.000 272.299 188.700 L 272.181 181.400 272.090 188.710 M130.090 188.867 C 130.040 192.534,129.884 195.864,129.741 196.267 C 129.548 196.813,129.602 196.890,129.951 196.570 C 130.284 196.265,130.385 194.123,130.300 189.170 L 130.180 182.200 130.090 188.867 M251.300 196.265 C 251.025 196.376,250.814 196.767,250.832 197.133 C 250.851 197.549,250.939 197.612,251.065 197.300 C 251.213 196.933,252.876 196.793,257.333 196.772 C 260.670 196.756,263.760 196.589,264.200 196.400 C 265.048 196.036,252.201 195.901,251.300 196.265 M116.181 197.732 C 115.773 199.360,116.147 202.124,116.800 202.299 C 117.267 202.425,117.284 202.380,116.877 202.093 C 116.527 201.846,116.395 201.009,116.477 199.562 L 116.600 197.400 123.000 197.185 L 129.400 196.969 122.908 196.885 L 116.415 196.800 116.181 197.732 M250.800 201.922 C 250.800 202.916,252.186 203.167,258.318 203.280 C 261.884 203.346,264.801 203.265,264.801 203.100 C 264.800 202.935,261.933 202.800,258.429 202.800 C 253.170 202.800,251.947 202.690,251.429 202.171 C 251.083 201.826,250.800 201.714,250.800 201.922 M124.200 202.377 L 129.800 202.600 130.019 209.600 L 130.238 216.600 130.219 209.400 L 130.200 202.200 124.400 202.177 L 118.600 202.154 124.200 202.377 M153.642 213.749 C 153.320 214.137,153.220 217.391,153.300 224.849 L 153.414 235.400 153.507 224.743 C 153.613 212.593,153.250 213.596,157.533 213.606 C 161.657 213.616,161.371 212.796,161.600 225.285 L 161.800 236.200 171.900 236.307 L 182.000 236.414 182.000 239.807 C 182.000 243.910,183.576 243.326,171.800 243.582 L 161.800 243.800 161.600 254.481 C 161.368 266.861,161.673 266.074,157.163 265.917 L 153.800 265.800 153.584 254.800 C 153.465 248.750,153.330 243.755,153.284 243.700 C 153.238 243.645,148.914 243.600,143.676 243.600 C 132.232 243.600,132.714 243.779,132.881 239.591 L 133.000 236.600 142.787 236.493 C 148.170 236.434,152.707 236.254,152.868 236.093 C 153.358 235.604,133.516 235.972,132.924 236.463 C 132.306 236.976,132.202 242.266,132.791 243.200 C 133.105 243.698,134.859 243.834,143.085 244.000 L 153.000 244.200 153.107 254.767 C 153.232 267.151,152.953 266.400,157.426 266.400 C 162.216 266.400,162.000 266.971,162.000 254.311 L 162.000 244.000 171.524 244.000 C 183.076 244.000,182.479 244.244,182.318 239.592 L 182.200 236.200 172.100 236.093 L 162.000 235.986 162.000 225.255 C 162.000 212.475,162.282 213.200,157.317 213.200 C 155.076 213.200,153.959 213.367,153.642 213.749 M241.324 213.700 C 241.146 213.975,240.910 219.060,240.800 225.000 L 240.600 235.800 230.832 235.907 C 219.398 236.033,220.000 235.803,220.000 240.035 C 220.000 244.179,219.497 244.000,231.167 244.000 L 240.787 244.000 240.900 254.500 L 241.014 265.000 241.107 254.300 L 241.200 243.600 231.300 243.594 C 219.620 243.587,220.330 243.838,220.482 239.765 L 220.600 236.600 230.800 236.383 C 236.410 236.263,241.045 236.128,241.100 236.083 C 241.155 236.037,241.200 231.146,241.200 225.214 C 241.200 212.736,240.878 213.600,245.525 213.600 C 249.364 213.600,249.170 212.992,249.293 225.433 L 249.400 236.200 259.368 236.307 C 265.902 236.377,269.519 236.566,269.868 236.856 C 270.205 237.136,270.400 237.149,270.400 236.892 C 270.400 236.109,269.056 236.000,259.367 236.000 L 249.600 236.000 249.600 225.374 C 249.600 218.814,249.442 214.451,249.186 213.974 C 248.680 213.028,241.911 212.792,241.324 213.700 M264.840 217.020 C 264.766 218.543,270.896 219.858,271.739 218.500 C 271.842 218.335,270.466 218.200,268.682 218.200 C 265.564 218.200,265.428 218.161,265.159 217.200 C 264.925 216.362,264.873 216.333,264.840 217.020 M269.600 243.200 C 269.254 243.423,264.801 243.590,259.100 243.594 L 249.200 243.600 249.200 254.557 C 249.200 264.180,249.123 265.544,248.567 265.757 C 247.504 266.165,241.681 266.028,241.463 265.590 C 241.351 265.365,241.306 265.410,241.362 265.690 C 241.501 266.381,248.248 266.625,249.040 265.967 C 249.495 265.589,249.600 263.482,249.600 254.751 L 249.600 244.000 259.324 244.000 C 267.254 244.000,269.190 243.892,269.824 243.413 C 270.693 242.755,270.529 242.600,269.600 243.200 M198.280 245.912 C 197.600 246.663,197.033 261.753,197.700 261.339 C 197.865 261.237,198.000 257.855,198.000 253.825 C 198.000 245.180,197.876 245.435,201.964 245.666 C 203.490 245.752,204.651 245.683,204.545 245.511 C 204.129 244.837,198.953 245.168,198.280 245.912 M204.872 253.676 C 204.832 257.788,204.935 261.237,205.100 261.339 C 205.265 261.441,205.352 258.887,205.293 255.663 C 205.124 246.380,204.950 245.560,204.872 253.676 M183.867 261.867 C 183.401 262.333,183.577 267.017,184.080 267.520 C 184.420 267.860,186.376 267.975,190.780 267.915 L 197.000 267.831 190.600 267.615 L 184.200 267.400 184.079 264.836 C 183.995 263.056,184.118 262.172,184.479 261.943 C 184.771 261.757,184.810 261.610,184.567 261.606 C 184.328 261.603,184.013 261.720,183.867 261.867 M218.546 262.111 C 219.104 262.519,219.220 263.104,219.123 265.011 L 219.000 267.400 212.400 267.615 L 205.800 267.830 212.220 267.915 C 219.621 268.013,219.600 268.022,219.600 264.800 C 219.600 262.685,219.140 261.600,218.244 261.600 C 218.025 261.600,218.162 261.830,218.546 262.111 M197.600 275.499 C 197.710 279.625,197.946 283.225,198.124 283.500 C 198.575 284.197,204.152 284.180,204.733 283.480 C 205.221 282.893,205.582 267.999,205.109 268.000 C 204.948 268.000,204.768 271.465,204.709 275.700 L 204.600 283.400 201.635 283.519 C 197.845 283.671,198.013 284.052,198.006 275.300 C 198.003 271.285,197.865 268.000,197.700 267.999 C 197.535 267.999,197.490 271.374,197.600 275.499 " stroke="none" fill="#5fc3ec" fill-rule="evenodd"></path><path id="path4" d="M199.225 117.154 C 198.975 117.621,198.800 120.640,198.800 124.494 C 198.800 132.624,199.401 132.000,191.563 132.000 C 184.773 132.000,184.800 131.991,184.800 134.259 C 184.800 136.730,185.005 136.800,192.214 136.800 L 198.800 136.800 198.805 143.500 C 198.813 152.302,199.489 153.672,203.031 152.059 L 204.000 151.617 204.000 144.209 L 204.000 136.800 210.367 136.800 C 218.231 136.800,218.000 136.880,218.000 134.157 L 218.000 132.000 211.633 132.000 C 208.131 132.000,204.951 131.879,204.567 131.732 C 204.091 131.549,203.961 131.613,204.158 131.932 C 204.360 132.259,206.439 132.400,211.046 132.400 L 217.644 132.400 217.522 134.300 L 217.400 136.200 210.600 136.400 L 203.800 136.600 203.691 143.982 C 203.575 151.807,203.528 151.988,201.600 151.988 C 199.476 151.988,199.415 151.782,199.200 143.915 L 199.000 136.600 192.305 136.490 C 185.632 136.381,185.610 136.378,185.372 135.431 C 184.677 132.663,184.787 132.610,191.400 132.503 C 200.098 132.363,199.200 133.152,199.200 125.642 C 199.200 116.857,199.216 116.800,201.641 116.800 L 203.582 116.800 203.705 124.100 L 203.829 131.400 203.814 124.000 L 203.800 116.600 201.725 116.480 C 199.992 116.380,199.579 116.491,199.225 117.154 M153.999 133.100 C 153.999 133.265,155.124 133.350,156.499 133.288 C 160.750 133.098,161.160 132.923,157.500 132.860 C 155.575 132.827,154.000 132.935,153.999 133.100 M241.481 133.053 C 241.326 133.207,241.200 138.238,241.200 144.233 C 241.200 151.278,241.055 155.205,240.790 155.337 C 240.565 155.449,240.610 155.494,240.890 155.437 C 241.285 155.357,241.424 152.848,241.506 144.267 L 241.613 133.200 245.006 133.200 C 246.873 133.200,248.438 133.245,248.484 133.300 C 248.530 133.355,248.665 138.335,248.784 144.367 C 248.967 153.652,249.092 155.359,249.600 155.498 C 250.037 155.617,250.066 155.566,249.707 155.311 C 249.340 155.051,249.186 152.129,249.107 143.980 L 249.000 133.000 245.381 132.886 C 243.390 132.823,241.635 132.898,241.481 133.053 M160.990 144.367 C 160.999 153.770,161.086 155.357,161.600 155.497 C 162.037 155.617,162.066 155.566,161.707 155.311 C 161.342 155.052,161.183 152.159,161.097 144.181 L 160.980 133.400 160.990 144.367 M132.883 158.700 L 133.000 161.800 143.181 161.907 C 150.714 161.986,153.443 162.142,153.675 162.507 C 153.894 162.853,153.990 162.791,153.994 162.300 C 154.000 161.651,153.239 161.600,143.568 161.600 L 133.137 161.600 133.268 158.599 C 133.341 156.949,133.257 155.599,133.083 155.599 C 132.909 155.600,132.819 156.995,132.883 158.700 M220.400 158.800 C 220.400 162.677,218.804 162.127,230.800 162.383 L 241.000 162.600 241.107 173.187 C 241.166 179.010,241.346 183.906,241.507 184.068 C 241.668 184.229,241.710 179.383,241.600 173.298 L 241.400 162.235 240.400 161.958 C 239.850 161.805,235.201 161.662,230.068 161.640 L 220.737 161.600 220.868 158.599 C 220.941 156.949,220.865 155.599,220.700 155.599 C 220.535 155.600,220.400 157.040,220.400 158.800 M269.582 156.366 C 269.834 156.838,269.987 158.164,269.920 159.312 L 269.800 161.400 259.800 161.600 C 254.300 161.710,249.575 161.946,249.300 162.124 C 248.922 162.369,248.800 164.927,248.800 172.650 C 248.800 184.854,248.951 184.373,245.086 184.478 L 242.200 184.557 244.892 184.696 C 249.454 184.933,249.170 185.668,249.293 173.289 L 249.400 162.600 259.368 162.493 C 266.084 162.421,269.514 162.237,269.884 161.930 C 270.631 161.310,270.439 155.943,269.661 155.686 C 269.229 155.543,269.214 155.678,269.582 156.366 M181.600 161.127 C 181.600 161.458,178.733 161.616,171.300 161.693 L 161.000 161.800 160.987 172.800 L 160.974 183.800 161.187 173.000 L 161.400 162.200 171.387 162.093 C 180.540 161.995,182.691 161.758,181.873 160.940 C 181.723 160.790,181.600 160.874,181.600 161.127 M197.464 170.068 C 196.868 170.401,196.800 171.670,196.800 182.371 C 196.800 191.823,196.689 194.394,196.267 194.744 C 195.913 195.038,192.041 195.223,184.767 195.293 L 173.800 195.400 173.686 199.700 L 173.573 204.000 184.737 204.000 C 193.558 204.000,195.995 204.112,196.345 204.534 C 196.642 204.892,196.823 209.072,196.894 217.234 L 197.000 229.400 200.941 229.515 C 206.445 229.676,206.000 230.777,206.000 216.984 C 206.000 210.539,206.109 204.981,206.243 204.633 C 206.456 204.076,207.852 204.000,217.800 204.000 C 230.815 204.000,229.600 204.469,229.600 199.447 C 229.600 194.900,230.449 195.200,217.563 195.200 C 207.831 195.200,206.456 195.123,206.243 194.567 C 206.109 194.219,206.000 188.634,206.000 182.155 C 206.000 173.081,205.885 170.339,205.500 170.219 C 204.309 169.847,198.068 169.730,197.464 170.068 M205.600 182.600 C 205.710 189.200,205.946 194.825,206.124 195.100 C 206.370 195.480,209.112 195.600,217.574 195.600 L 228.700 195.600 228.950 196.850 C 229.265 198.426,229.264 201.520,228.948 202.700 L 228.707 203.600 217.567 203.600 C 206.964 203.600,206.408 203.637,206.014 204.374 C 205.755 204.857,205.600 209.584,205.600 216.966 L 205.600 228.785 204.699 229.011 C 204.203 229.135,202.358 229.184,200.599 229.119 L 197.400 229.000 197.200 216.685 C 197.032 206.324,196.905 204.310,196.400 203.991 C 196.061 203.777,191.061 203.610,184.900 203.606 L 174.000 203.600 174.000 199.600 L 174.000 195.600 184.971 195.600 C 194.412 195.600,196.031 195.512,196.571 194.971 C 197.115 194.428,197.200 192.720,197.200 182.357 L 197.200 170.372 201.300 170.486 L 205.400 170.600 205.600 182.600 M265.197 181.809 C 264.978 182.383,264.800 185.879,264.800 189.579 C 264.800 197.568,265.630 196.787,257.143 196.795 C 250.588 196.801,250.800 196.700,250.800 199.804 C 250.800 202.677,251.113 202.800,258.429 202.800 L 264.800 202.800 264.840 209.500 C 264.894 218.645,264.701 218.200,268.618 218.200 L 271.800 218.200 272.000 210.600 L 272.200 203.000 279.000 202.800 L 285.800 202.600 285.918 199.700 L 286.035 196.800 280.044 196.800 C 276.748 196.800,273.594 196.626,273.035 196.413 L 272.018 196.027 271.909 188.513 L 271.800 181.000 268.697 180.883 C 265.674 180.769,265.583 180.794,265.197 181.809 M271.509 188.913 L 271.618 196.427 272.635 196.813 C 273.194 197.026,276.349 197.200,279.645 197.200 L 285.638 197.200 285.519 199.700 L 285.400 202.200 278.600 202.400 L 271.800 202.600 271.600 210.200 L 271.400 217.800 268.600 217.800 L 265.800 217.800 265.690 210.630 C 265.554 201.713,266.208 202.445,258.259 202.310 L 251.800 202.200 251.681 199.700 L 251.562 197.200 257.781 197.200 C 266.110 197.200,265.600 197.757,265.600 188.667 C 265.600 180.665,265.398 181.133,268.783 181.284 L 271.400 181.400 271.509 188.913 M130.400 189.176 C 130.400 197.753,131.145 196.945,123.000 197.200 L 116.600 197.400 116.480 199.700 C 116.393 201.368,116.503 202.011,116.880 202.038 C 117.166 202.059,120.280 202.104,123.800 202.138 L 130.200 202.200 130.400 209.600 L 130.600 217.000 133.000 217.000 L 135.400 217.000 135.509 209.618 C 135.587 204.351,135.759 202.136,136.109 201.887 C 136.465 201.635,136.434 201.584,136.000 201.703 C 135.499 201.839,135.382 203.098,135.291 209.333 L 135.182 216.800 132.991 216.800 L 130.800 216.800 130.800 209.833 C 130.800 200.653,131.529 201.542,124.048 201.603 C 120.612 201.631,117.575 201.641,117.300 201.627 C 116.970 201.609,116.800 200.919,116.800 199.600 L 116.800 197.600 123.026 197.600 C 131.472 197.600,130.800 198.294,130.800 189.565 L 130.800 182.358 132.900 182.479 L 135.000 182.600 135.109 189.895 C 135.238 198.506,134.284 197.562,143.000 197.703 L 149.000 197.800 149.128 199.359 C 149.207 200.325,149.054 201.060,148.728 201.290 C 148.313 201.582,148.328 201.626,148.800 201.500 C 149.470 201.320,149.789 199.606,149.424 198.152 C 149.185 197.201,149.178 197.200,143.025 197.200 C 134.799 197.200,135.600 197.978,135.600 189.990 C 135.600 181.665,135.719 182.000,132.757 182.000 L 130.400 182.000 130.400 189.176 M154.538 184.494 C 154.792 184.656,156.080 184.788,157.400 184.788 C 158.720 184.788,160.008 184.656,160.262 184.494 C 160.516 184.332,159.228 184.200,157.400 184.200 C 155.572 184.200,154.284 184.332,154.538 184.494 M154.100 213.865 C 153.718 214.019,153.600 216.539,153.600 224.557 C 153.600 232.324,153.470 235.222,153.100 235.720 C 152.659 236.313,151.442 236.405,142.800 236.496 L 133.000 236.600 132.881 239.591 C 132.714 243.779,132.232 243.600,143.676 243.600 C 148.914 243.600,153.238 243.645,153.284 243.700 C 153.330 243.755,153.465 248.750,153.584 254.800 L 153.800 265.800 157.163 265.917 C 161.673 266.074,161.368 266.861,161.600 254.481 L 161.800 243.800 171.667 243.600 C 184.603 243.338,184.904 242.800,172.116 242.800 C 163.290 242.800,162.033 242.879,161.549 243.461 C 161.121 243.976,160.974 246.482,160.882 254.861 L 160.763 265.600 157.382 265.600 L 154.000 265.600 154.000 254.862 C 154.000 241.340,155.347 242.800,142.869 242.800 L 133.200 242.800 133.200 239.800 L 133.200 236.800 143.120 236.800 C 150.302 236.800,153.172 236.668,153.520 236.320 C 153.869 235.971,154.000 232.934,154.000 225.163 C 154.000 213.104,153.727 214.000,157.400 214.000 C 161.065 214.000,160.800 213.172,160.800 224.624 C 160.800 231.391,160.952 235.097,161.258 235.768 L 161.717 236.774 171.859 236.887 C 177.437 236.949,182.000 236.868,182.000 236.707 C 182.000 236.546,177.455 236.366,171.900 236.307 L 161.800 236.200 161.600 225.285 C 161.433 216.169,161.301 214.307,160.800 213.991 C 160.183 213.602,154.994 213.504,154.100 213.865 M241.900 214.032 C 241.261 214.404,241.200 215.375,241.200 225.220 C 241.200 231.149,241.155 236.037,241.100 236.083 C 241.045 236.128,236.410 236.263,230.800 236.383 L 220.600 236.600 220.482 239.765 C 220.330 243.838,219.620 243.587,231.300 243.594 L 241.200 243.600 241.200 254.167 C 241.200 267.005,240.893 266.000,244.810 266.000 C 249.637 266.000,249.200 267.139,249.200 254.557 L 249.200 243.600 259.026 243.600 C 270.781 243.600,270.400 243.719,270.400 240.035 C 270.400 236.261,270.903 236.431,259.368 236.307 L 249.400 236.200 249.293 225.433 C 249.223 218.307,249.037 214.486,248.744 214.133 C 248.212 213.491,242.962 213.414,241.900 214.032 M248.276 214.500 C 248.454 214.775,248.690 219.860,248.800 225.800 L 249.000 236.600 259.255 236.707 C 270.820 236.827,269.981 236.565,269.995 240.067 C 270.005 242.950,270.557 242.800,259.931 242.800 C 247.446 242.800,248.801 241.472,248.795 253.714 C 248.788 266.627,249.095 265.659,245.049 265.515 L 241.800 265.400 241.697 254.600 C 241.605 245.017,241.518 243.744,240.920 243.300 C 240.425 242.932,237.673 242.800,230.506 242.800 L 220.765 242.800 220.882 239.900 L 221.000 237.000 230.768 236.893 C 237.154 236.823,240.720 236.633,241.068 236.344 C 241.487 235.996,241.600 233.616,241.600 225.180 C 241.600 212.981,241.201 214.127,245.476 214.046 C 247.064 214.017,248.069 214.179,248.276 214.500 M198.458 246.130 C 198.183 246.461,197.978 249.420,197.909 254.030 L 197.800 261.400 191.800 261.497 C 183.491 261.631,183.939 261.445,184.082 264.712 L 184.200 267.400 191.000 267.634 C 194.740 267.763,197.845 267.898,197.900 267.934 C 197.955 267.970,198.003 271.285,198.006 275.300 C 198.013 284.052,197.845 283.671,201.635 283.519 L 204.600 283.400 204.709 275.700 C 204.768 271.465,204.858 267.970,204.909 267.933 C 204.959 267.897,208.150 267.762,212.000 267.633 L 219.000 267.400 219.122 265.042 C 219.189 263.745,219.099 262.538,218.922 262.360 C 218.745 262.182,218.600 263.154,218.600 264.519 L 218.600 267.000 212.000 267.200 C 203.607 267.454,204.400 266.573,204.400 275.641 L 204.400 283.235 201.500 283.118 L 198.600 283.000 198.491 275.630 C 198.355 266.484,199.019 267.245,191.059 267.110 L 184.600 267.000 184.600 264.600 L 184.600 262.200 191.300 262.090 C 194.985 262.030,198.035 261.940,198.078 261.890 C 198.121 261.841,198.256 258.290,198.378 254.000 L 198.600 246.200 201.400 246.200 L 204.200 246.200 204.422 254.000 C 204.544 258.290,204.679 261.845,204.722 261.900 C 204.765 261.955,207.815 261.962,211.500 261.915 L 218.200 261.830 211.600 261.615 L 205.000 261.400 204.891 253.818 C 204.812 248.365,204.644 246.148,204.291 245.924 C 203.449 245.389,198.941 245.548,198.458 246.130 " stroke="none" fill="#a8ddf4" fill-rule="evenodd"></path></g></svg>